<svg width="1440" height="417" viewBox="0 0 1440 417" fill="none" xmlns="http://www.w3.org/2000/svg">
<g clip-path="url(#clip0_56_1717)">
<path d="M41.5911 804C41.5911 804 -17.679 737.838 23.6386 617.437C64.9563 497.037 8.35621 418.791 23.6386 301.11C42.043 159.387 146.75 76.6129 311.106 98.3923C475.463 120.172 593.608 205.15 746.744 146.337C899.88 87.5234 966.542 -8.25892 1179.09 46.1335C1485.52 124.551 1328.95 406.132 1412.96 467.043C1496.98 527.955 1548.53 627.394 1474.09 804H41.5911Z" fill="#EBF3FA" fill-opacity="0.46"/>
<path opacity="0.5" d="M732.35 267.953C718.806 254.869 731.028 248.747 744.823 250.623C753.386 251.795 762.402 256.711 766.197 267.953C768.811 275.695 763.386 284.009 754.723 284.009C746.06 284.009 738.375 273.781 732.35 267.953Z" fill="white"/>
<path opacity="0.5" d="M710.454 256.153C705.829 251.68 710.002 249.588 714.719 250.233C717.648 250.633 720.73 252.312 722.025 256.153C722.246 256.776 722.312 257.443 722.22 258.097C722.127 258.751 721.878 259.373 721.494 259.911C721.109 260.449 720.601 260.886 720.011 261.187C719.421 261.487 718.768 261.642 718.105 261.638C715.146 261.638 712.514 258.146 710.454 256.153Z" fill="white"/>
<path opacity="0.5" d="M624.437 385.849C615.289 379.575 612.511 386.688 614.788 394.004C616.201 398.551 619.955 403.039 627.177 404.199C632.152 404.991 636.821 401.375 636.121 396.683C635.421 391.991 628.513 388.645 624.437 385.849Z" fill="white"/>
<path d="M1004.13 267.005C994.488 263.544 985.592 248.247 985.592 248.247L988.659 245.031C991.186 248.716 1002.51 256.89 1002.51 256.89C1003.61 257.481 1005.69 248.224 1006.15 245.676C1009.3 228.346 1015.75 226.615 1016.2 227.992C1021.96 245.852 1010.22 269.189 1004.13 267.005Z" fill="#FFB27D"/>
<path d="M1038.94 387.847C1036.86 396.061 1034.01 404.059 1030.41 411.732L1025.94 411.421C1025.94 411.421 1028.13 401.031 1028 386.988C1027.91 377.171 1026.7 365.58 1022.81 354.489C1009.44 316.421 1011.6 288.716 1011.6 288.716L1036.74 291.647L1037.91 291.784C1038.01 303.296 1038.31 318.927 1038.57 331.149C1038.8 342.139 1039 350.373 1039 350.373C1043.84 360.748 1042.08 375.397 1038.94 387.847Z" fill="#163560"/>
<path d="M1053.2 378.479C1052.3 393.9 1046.83 410.081 1046.83 410.081L1043.42 412.555C1043.42 412.555 1041.4 401.719 1039.97 388.826C1038.61 376.57 1036.74 363.595 1034.63 359.645C1026.25 343.948 1023.73 284.689 1023.73 284.689L1049.21 283.415C1051.77 287.712 1053.04 294.756 1053.16 302.784C1053.33 314.933 1049.41 344.517 1050.03 351.308C1050.35 355.373 1054.05 364.115 1053.2 378.479Z" fill="#1C468A"/>
<path d="M1035.3 414.472C1035.3 414.472 1035.06 413.886 1034.79 413.055C1034.32 411.686 1033.73 409.665 1033.92 408.574C1034.03 407.945 1033.94 407.295 1033.66 406.719C1033.5 406.383 1033.28 406.082 1033 405.832C1033 405.832 1031 408.215 1029.82 407.226C1027.55 405.315 1027.03 405.154 1026.92 405.152H1026.89C1026.89 405.152 1021.9 408.302 1020.59 409.484C1018.27 411.579 1015.74 411.908 1014.46 412.288C1014.21 412.361 1013.97 412.492 1013.77 412.671C1013.58 412.85 1013.43 413.072 1013.33 413.32C1013.04 414.061 1012.75 415.066 1013.05 415.499H1025.17L1025.19 415.471C1025.33 415.331 1026.01 414.724 1027.49 414.918C1028.48 415.045 1029.18 415.32 1030.14 415.471H1032.99C1035.43 415.155 1035.3 414.472 1035.3 414.472Z" fill="#32578E"/>
<path d="M1050.51 414.472C1050.51 414.472 1050.27 413.886 1050 413.055C1049.54 411.686 1048.95 409.665 1049.13 408.574C1049.25 407.945 1049.16 407.294 1048.88 406.719C1048.72 406.383 1048.49 406.082 1048.22 405.832C1048.22 405.832 1046.22 408.215 1045.04 407.226C1042.77 405.315 1042.25 405.154 1042.14 405.152H1042.11C1042.11 405.152 1037.12 408.302 1035.81 409.484C1033.49 411.579 1030.96 411.908 1029.68 412.288C1029.42 412.36 1029.19 412.491 1028.99 412.67C1028.79 412.85 1028.64 413.072 1028.54 413.32C1028.26 414.061 1027.96 415.066 1028.27 415.499H1040.38L1040.41 415.471C1040.55 415.331 1041.23 414.724 1042.71 414.918C1043.69 415.045 1044.39 415.32 1045.35 415.471H1048.2C1050.65 415.155 1050.51 414.472 1050.51 414.472Z" fill="#466AA5"/>
<path d="M1047.02 252.231C1049.04 252.353 1054.73 252.231 1057.37 249.545C1055.07 238.374 1054.58 232.232 1048.1 225.555C1044.41 221.76 1028.07 219.599 1016.09 224.775C1014.05 225.66 1009.91 229.459 1004.97 246.555C1006.45 248.44 1008.49 249.805 1010.79 250.452C1010.9 250.483 1011 250.508 1011.1 250.534C1010.43 261.808 1006.26 280.573 1007.76 291.428C1009.2 301.877 1031.22 299.196 1035.58 298.227C1038.57 297.568 1040.89 294.425 1042.54 288.797C1043.09 292.722 1044.31 297.32 1047.07 297.605C1051.57 298.069 1053.43 297.294 1053.97 295.592C1054.13 294.926 1054.19 294.237 1054.12 293.553C1053.84 287.704 1048.99 265.096 1047.02 252.231Z" fill="#AEC3FF"/>
<path d="M988.679 243.925C988.679 243.785 990.742 239.531 990.085 239.205C989.428 238.879 988.252 238.927 988.117 239.672C987.982 240.416 988.679 243.925 988.679 243.925Z" fill="#FFB27D"/>
<path d="M1019.47 192.844C1019.47 192.844 1031.56 178.351 1037.96 187.625C1037.96 187.625 1042.74 189.603 1044.47 197.71C1046.23 205.985 1040.71 212.272 1037.86 210.707C1036.03 209.711 1034.65 212.904 1034.65 212.904L1019.47 192.844Z" fill="#233862"/>
<path d="M1036.64 186.157C1036.64 186.157 1038.27 179.671 1047.82 181.697C1047.82 181.697 1043.25 181.124 1041.99 182.88C1041.99 182.88 1045.62 181.223 1047.89 182.609C1050.16 183.996 1050.53 188.657 1050.19 190.074C1049.85 191.491 1047.35 195.717 1045.68 195.717C1044.02 195.717 1042.06 194.264 1042.06 194.264L1036.64 186.157Z" fill="#233862"/>
<path d="M1036.48 221.895C1036.48 221.895 1034.57 217.958 1034.6 211.041L1033.99 211.146L1023.77 212.93C1023.77 212.93 1024 215.761 1024.01 218.427C1024.01 220.649 1023.89 222.466 1024.43 223.353C1025.05 224.383 1030.43 228.728 1036.48 221.895Z" fill="#FFB27D"/>
<path d="M1023.76 212.927C1023.76 212.927 1023.99 215.758 1024 218.424C1029.72 218.282 1032.75 213.692 1033.99 211.146L1023.76 212.927Z" fill="#E8945B"/>
<path d="M1035.05 210.05C1035.05 210.05 1038.05 205.322 1038.77 201.28C1039.28 198.393 1037.81 187.694 1027.03 189.236C1024.86 189.537 1022.78 190.321 1020.95 191.529C1018.61 193.104 1015.24 196.509 1019.01 205.845L1019.99 208.997L1035.05 210.05Z" fill="#233862"/>
<path d="M1021.85 216.046C1021.85 216.046 1035.39 216.268 1035.39 207.853C1035.39 199.438 1037.16 193.8 1028.51 193.303C1019.86 192.806 1018.17 196.012 1017.49 198.821C1016.8 201.629 1018.32 215.771 1021.85 216.046Z" fill="#FFB27D"/>
<path d="M1022.35 193.097C1022.35 193.097 1026.06 202.967 1031.75 204.428C1037.44 205.888 1039.91 204.366 1039.91 204.366C1039.91 204.366 1035.54 200.908 1034.64 194.87C1034.64 194.87 1025.15 188.397 1022.35 193.097Z" fill="#233862"/>
<path d="M1023.27 193.902C1023.27 193.902 1020.51 196.101 1019.82 198.235C1019.14 200.368 1018.84 204.787 1017.55 204.639C1017.55 204.639 1014.76 197.929 1017.9 194.131C1021.23 190.117 1023.27 193.902 1023.27 193.902Z" fill="#233862"/>
<path d="M1022.75 194.231C1022.75 194.231 1025.4 204.568 1032.58 207.881C1032.58 207.881 1025.4 201.527 1024.79 194.705C1024.17 187.882 1022.75 194.231 1022.75 194.231Z" fill="#233862"/>
<path d="M988.623 246.13C988.623 245.712 988.976 239.679 987.897 238.413C986.819 237.146 984.621 235.354 983.929 235.398C983.236 235.441 980.533 239.037 981.348 241.784C982.163 244.532 985.592 248.247 985.592 248.247L988.623 246.13Z" fill="#FFB27D"/>
<path d="M992.858 238.986L986.586 240.859C986.538 240.875 986.486 240.88 986.435 240.876C986.384 240.871 986.335 240.857 986.289 240.833C986.244 240.809 986.204 240.777 986.171 240.738C986.138 240.698 986.113 240.653 986.098 240.604L982.521 228.682C982.49 228.584 982.5 228.477 982.548 228.385C982.596 228.294 982.678 228.225 982.776 228.193L989.045 226.32C989.094 226.304 989.145 226.299 989.197 226.303C989.248 226.308 989.297 226.322 989.343 226.346C989.389 226.369 989.429 226.402 989.462 226.441C989.495 226.48 989.52 226.526 989.535 226.575L993.113 238.497C993.144 238.595 993.134 238.702 993.086 238.794C993.038 238.885 992.956 238.954 992.858 238.986Z" fill="#C0531C"/>
<path d="M991.227 239.473L985.541 241.173C985.453 241.199 985.361 241.208 985.27 241.199C985.179 241.189 985.091 241.162 985.01 241.119C984.929 241.076 984.858 241.017 984.8 240.946C984.742 240.875 984.699 240.794 984.672 240.706L981.263 229.365C981.237 229.278 981.228 229.186 981.237 229.095C981.247 229.004 981.274 228.916 981.317 228.835C981.361 228.755 981.42 228.684 981.491 228.626C981.562 228.568 981.643 228.525 981.731 228.499L987.419 226.799C987.507 226.772 987.599 226.763 987.69 226.772C987.781 226.781 987.87 226.808 987.95 226.852C988.031 226.895 988.102 226.954 988.159 227.025C988.217 227.096 988.26 227.178 988.286 227.265L991.695 238.606C991.721 238.694 991.731 238.786 991.721 238.877C991.712 238.968 991.685 239.056 991.642 239.137C991.598 239.217 991.539 239.288 991.468 239.346C991.397 239.404 991.315 239.447 991.227 239.473Z" fill="#F78248"/>
<path d="M983.282 235.859C983.282 235.859 985.894 231.853 986.533 232.077C987.443 232.395 984.164 237.477 984.164 237.477C984.164 237.477 986.594 233.68 986.975 233.965C987.841 234.615 986.464 237.003 985.099 238.833C985.099 238.833 987.542 236.603 987.621 237.003C987.9 238.413 984.941 241.82 984.941 241.82L983.285 238.053L983.282 235.859Z" fill="#FFB27D"/>
<path d="M981.325 239.58C981.45 239.09 981.419 229.883 981.693 230.79C981.966 231.697 983.361 236.042 983.361 236.042L981.325 239.58Z" fill="#FFB27D"/>
<path d="M1054.35 245.069C1054.35 245.069 1057.19 266.37 1054.61 270.871C1052.74 274.141 1028.54 276.898 1028.54 276.898L1026.64 273.147C1026.64 273.147 1046.2 267.181 1047.07 265.287C1047.94 263.393 1045.32 248.278 1045.32 248.278L1054.35 245.069Z" fill="#FFB27D"/>
<path d="M1024.71 211.036C1024.71 211.036 1024.48 212.027 1022 211.874C1022 211.874 1019.93 211.747 1019.99 210.656C1020 210.656 1022 209.882 1024.71 211.036Z" fill="white"/>
<path d="M1028.56 276.898C1028.56 276.898 1024.79 281.412 1023.34 281.995C1021.89 282.579 1016.67 283.779 1016.67 283.779C1016.67 283.779 1016.62 282.505 1018.93 281.516C1021.24 280.527 1021.5 276.404 1022.83 275.168C1024.15 273.932 1026.66 273.129 1026.66 273.129L1028.56 276.898Z" fill="#FFB27D"/>
<path d="M1026.66 273.147C1026.66 273.147 1022.75 273.542 1021.53 274.421C1020.3 275.3 1018.29 276.46 1018.72 277.064C1019.15 277.668 1023.44 276.949 1023.44 276.949L1026.66 273.147Z" fill="#FFB27D"/>
<path d="M1022.98 281.277C1022.78 281.381 1017.76 285.163 1017.76 285.163C1017.76 285.163 1017.22 283.537 1017.97 283.181C1018.72 282.824 1022.98 281.277 1022.98 281.277Z" fill="#FFB27D"/>
<path d="M1057.37 249.545C1057.37 249.545 1053.95 254.932 1039.96 252.641C1025.98 250.35 1039.23 243.161 1039.96 243.01C1040.69 242.86 1054.57 243.01 1054.57 243.01L1057.37 249.545Z" fill="#AEC3FF"/>
<path d="M436.428 232.051C435.551 230.364 455.55 224.294 455.867 240.933C455.867 240.933 493.336 240.013 475.445 219.189C469.253 211.979 469.889 206.018 470.078 200.467C470.267 194.916 466.219 178.789 452.353 180.413C452.353 180.413 448.72 178.939 444.176 181.284C433.877 186.616 410.789 238.186 436.428 232.051Z" fill="#163560"/>
<path d="M497.68 247.325C497.68 247.325 500.118 243.622 502.085 243.548C504.053 243.474 507.69 242.46 507.398 243.186C507.107 243.912 504.843 243.984 504.633 244.42C504.424 244.855 507.981 245.508 509.001 245.582C510.02 245.656 512.422 245.582 512.348 246.091C512.274 246.601 508.019 248.706 505.014 248.416C502.009 248.125 498.298 249.287 498.298 249.287L497.68 247.325Z" fill="#FFB27D"/>
<path d="M462.409 248.523C463.476 250.508 464.725 252.391 466.14 254.147C469.038 257.766 473.508 261.948 479.117 262.774C481.798 263.169 484.417 262.593 486.827 261.525C493.642 258.51 498.763 251.586 498.763 251.586C499.964 248.319 497.997 246.104 497.997 246.104C497.997 246.104 484.238 249.19 482.919 248.538C481.601 247.886 473.551 230.058 472.102 227.092C469.015 220.782 464.121 218.97 464.121 218.97L462.409 248.523Z" fill="#AEC3FF"/>
<path d="M466.14 254.147C469.038 257.766 473.508 261.948 479.117 262.774C481.797 263.169 484.417 262.593 486.827 261.525C486.571 261.561 479.756 262.4 477.042 257.56C474.274 252.623 471.284 244.781 467.173 247.396C465.399 248.523 465.478 251.326 466.14 254.147Z" fill="#94B0ED"/>
<path d="M411.09 396.634C411.09 396.634 406.892 400.457 407.712 403.172C408.532 405.886 412.312 407.695 412.823 411.013C413.334 414.332 415.381 416.136 417.223 416.136H426.012C426.012 416.136 427.369 413.799 424.09 413.096C420.811 412.392 419.58 408.49 419.779 404.882C419.978 401.273 419.472 396.436 419.472 396.436L412.509 394.825L411.09 396.634Z" fill="#2B478B"/>
<path d="M446.611 398.258C446.611 398.258 445.101 414.444 446.944 415.349L470.531 415.3C470.531 415.3 470.531 412.586 466.743 411.987C462.956 411.388 456.299 409.184 455.172 404.244C454.045 399.305 446.611 398.258 446.611 398.258Z" fill="#2B478B"/>
<path d="M428.467 237.602C428.257 241.224 428.257 244.855 428.467 248.477C428.703 252.407 432.689 257.675 433.256 258.977C434.675 262.242 436.274 262.774 436.274 262.774L448.656 265.802L453 266.865L466.733 262.787C466.733 262.787 472.986 245.375 470.474 235.576C467.962 225.777 464.126 218.967 464.126 218.967C464.126 218.967 454.817 215.305 438.332 218.039L428.467 237.602Z" fill="#AEC3FF"/>
<path d="M432.094 250.08C432.326 254.012 432.689 257.674 433.256 258.977C434.675 262.242 436.274 262.774 436.274 262.774L448.656 265.802L454.035 264.224C454.035 264.224 436.078 261.51 438.068 246.104L432.094 250.08Z" fill="#F2CCAA"/>
<path d="M465.874 265.417C465.874 265.417 472.674 286.527 473.111 293.706C473.548 300.885 460.112 395.809 459.567 399.122C459.056 402.244 455.172 404.234 455.172 404.234C455.172 404.234 453.383 405.284 450.828 404.566C447.288 403.569 446.169 402.376 446.169 402.376C446.169 402.376 440.877 334.682 444.15 310.501C446.147 295.549 447.257 280.492 447.472 265.409L465.874 265.417Z" fill="#4F7FD3"/>
<path d="M437.061 264.788C437.061 264.788 426.689 278.67 425.72 288.051C424.752 297.432 424.202 330.395 422.143 339.532C420.083 348.668 412.514 366.291 412.514 394.815C412.514 394.815 413.301 396.451 415.728 397.323C416.657 397.634 417.601 397.894 418.557 398.102C419.531 398.324 420.552 398.212 421.454 397.784C422.357 397.357 423.089 396.64 423.533 395.748C428.644 385.472 444.953 352.328 445.788 345.447C446.379 340.579 451.525 308.355 462.754 289.447C465.45 284.906 461.101 266.854 461.101 266.854L437.061 264.788Z" fill="#739AF0"/>
<path d="M466.961 262.157C466.961 262.157 464.231 264.311 458.806 264.421C452.328 264.551 436.277 262.774 436.277 262.774C435.836 264.089 435.605 265.465 435.592 266.852C435.592 266.852 455.198 271.783 466.557 267.573C466.557 267.581 468.021 264.831 466.961 262.157Z" fill="#233862"/>
<path d="M457.406 266.651C457.406 264.813 458.732 263.315 460.36 263.315C461.988 263.315 463.316 264.813 463.316 266.651C463.316 268.488 461.99 269.989 460.36 269.989C458.729 269.989 457.406 268.491 457.406 266.651ZM458.384 266.651C458.384 267.953 459.271 269.011 460.36 269.011C461.448 269.011 462.338 267.953 462.338 266.651C462.338 265.348 461.451 264.293 460.36 264.293C459.269 264.293 458.384 265.351 458.384 266.651Z" fill="white"/>
<path d="M417.254 267.785L433.175 281.611C433.727 282.09 434.448 282.332 435.179 282.282C435.91 282.231 436.591 281.894 437.072 281.343L457.385 258.077C457.866 257.526 458.108 256.807 458.057 256.078C458.006 255.349 457.667 254.67 457.114 254.191L441.196 240.365C440.644 239.885 439.922 239.644 439.192 239.695C438.461 239.746 437.78 240.084 437.299 240.635L416.986 263.901C416.748 264.173 416.566 264.49 416.45 264.833C416.335 265.175 416.288 265.537 416.313 265.898C416.338 266.259 416.434 266.611 416.595 266.935C416.757 267.258 416.981 267.547 417.254 267.785Z" fill="#F78248"/>
<path d="M440.808 266.042C441.033 266.1 449.264 267.061 449.264 268.761C449.264 270.723 446.852 273.348 444.577 273.226C443.657 273.175 439.41 269.281 439.41 269.281L440.808 266.042Z" fill="#FFB27D"/>
<path d="M445.032 217.13C445.97 214.864 446.517 211.416 446.501 207.144L447.122 207.267L457.577 209.331C457.577 209.331 457.339 212.614 457.321 215.702V215.779C457.308 218.462 459.141 221.156 454.822 222.222C453.511 222.553 443.067 221.885 445.032 217.13Z" fill="#FFB27D"/>
<path d="M457.577 209.331C457.577 209.331 457.339 212.614 457.321 215.702C451.472 215.537 448.377 210.215 447.099 207.264L457.577 209.331Z" fill="#E8945B"/>
<path d="M459.532 212.252C459.532 212.252 445.689 212.479 445.679 203.88C445.668 195.281 443.877 189.519 452.714 189.011C461.551 188.504 463.273 191.789 463.989 194.667C464.704 197.544 463.132 211.979 459.532 212.252Z" fill="#FFB27D"/>
<path d="M459.018 188.805C459.018 188.805 455.228 198.892 449.412 200.386C443.596 201.879 441.074 200.322 441.074 200.322C441.074 200.322 445.535 196.787 446.461 190.617C446.461 190.62 456.161 184.006 459.018 188.805Z" fill="#163560"/>
<path d="M458.08 189.626C458.08 189.626 460.891 190.676 462.046 192.72C463.446 195.108 464.097 197.859 463.917 200.62C463.917 200.62 466.774 193.764 463.564 189.886C460.155 185.765 458.08 189.626 458.08 189.626Z" fill="#163560"/>
<path d="M440.808 266.041C440.808 266.041 442.778 265.409 444.097 265.593C445.415 265.776 446.397 265.567 446.397 265.934C446.397 266.301 444.695 266.475 444.332 266.651C443.969 266.826 440.808 266.041 440.808 266.041Z" fill="#FFB27D"/>
<path d="M438.347 218.027C438.347 218.027 428.521 218.715 424.754 227.846C420.988 236.978 413.843 252.312 413.843 254.886C413.843 257.46 417.834 265.417 439.272 269.989C439.272 269.989 441.488 267.662 441.355 265.822C441.355 265.822 427.972 254.354 428.007 253.018C428.076 250.485 430.203 247.139 441.95 235.418C445.144 232.232 438.347 218.027 438.347 218.027Z" fill="#AEC3FF"/>
<path d="M378.398 415.132C376.405 413.919 377.54 404.866 377.54 404.866C377.54 404.866 386.826 397.458 388.104 403.131C389.382 408.804 396.925 411.35 401.221 412.051C404.185 412.53 405.105 414.169 405.389 415.137L378.398 415.132Z" fill="#1E3456"/>
<path d="M338.032 415.132C336.039 413.919 337.173 404.866 337.173 404.866C337.173 404.866 346.46 397.458 347.738 403.131C349.015 408.804 356.559 411.35 360.855 412.051C363.819 412.53 364.739 414.169 365.023 415.137L338.032 415.132Z" fill="#233862"/>
<path d="M344.508 285.495C344.508 294.415 347.978 306.974 347.978 306.974C350.625 319.757 373.581 406.877 375.792 407.711C379.479 409.099 388.881 406.181 388.735 404.882C381.58 340.839 379.057 287.694 378.641 285.635C377.465 284.727 348.949 275.558 344.508 285.495Z" fill="#233862"/>
<path d="M370.872 176.062C370.872 176.062 364.601 169.24 362.662 169.01C360.722 168.781 352.739 172.596 352.284 174.107C351.829 175.619 361.064 172.601 361.578 174.107C362.092 175.614 362.662 176.636 365.283 176.75C367.905 176.865 370.187 178.343 370.187 178.343L370.872 176.062Z" fill="#FFB27D"/>
<path d="M358.626 205.416V207.022C358.626 207.022 358.987 212.05 353.894 212.784C348.801 213.518 344.95 210.822 345.082 206.943C345.542 203.941 346.046 201.879 346.079 199.394C346.091 198.388 346.03 197.382 345.898 196.384L355.764 196.145L358.672 196.721L358.626 205.416Z" fill="#FFB27D"/>
<path d="M358.665 196.721L358.637 203.192C347.464 202.358 346.033 197.49 345.89 196.384L355.757 196.145L358.665 196.721Z" fill="#E8945B"/>
<path d="M360.852 200.946C360.852 200.946 345.45 204.048 343.662 194.453C341.873 184.857 338.678 178.797 348.435 176.409C358.192 174.021 360.794 177.336 362.171 180.395C363.548 183.453 364.813 199.891 360.852 200.946Z" fill="#FFB27D"/>
<path d="M370.08 277.461C353.316 353.597 351.17 406.673 351.17 406.673C351.17 406.673 346.143 408.139 336.123 406.892C336.123 406.892 333.823 373.165 332.661 347.898C332.318 340.492 328.827 296.757 333.642 275.555C335.581 267.012 371.992 268.83 370.08 277.461Z" fill="#2B478B"/>
<path d="M379.106 286.017C379.106 286.017 374.128 290.536 360.98 290.454C352.713 290.4 341.536 288.481 336.537 287.449C329.811 286.06 330.882 283.626 331.426 278.667C332.126 272.296 332.407 260.761 328.814 241.203C328.288 238.315 327.67 235.251 326.962 232.011C323.949 218.203 341.346 210.213 343.59 206.946C356.368 218.638 359.945 207.792 359.945 207.792C360.073 207.792 366.004 208.648 371.422 205.419C376.602 202.33 376.162 222.081 376.17 228.458C376.17 235.306 377.603 252.193 377.803 259.634C378.058 269.288 379.106 286.017 379.106 286.017Z" fill="#AEC3FF"/>
<path d="M400.298 194.412C400.18 194.997 400.029 195.576 399.846 196.145C396.059 208.123 380.266 221.842 378.168 226.315C376.936 228.945 376.428 236.687 376.469 236.445L364.895 210.399C364.895 210.399 381.557 197.911 382.257 196.127C383.317 193.443 367.016 178.7 367.016 178.7C367.016 178.7 366.203 177.426 367.2 175.081C367.967 173.254 369.278 172.729 369.278 172.729C369.278 172.729 401.446 188.507 400.298 194.412Z" fill="#AEC3FF"/>
<path d="M331.689 264.079C330.506 256.023 330.455 254.193 327.544 234.636C328.641 234.857 332.446 233.015 334.296 236.152C339.67 245.266 341.426 252.238 331.689 264.079Z" fill="#94B0ED"/>
<path d="M327.501 267.971C327.501 267.971 335.495 263.151 337.978 263.763C340.462 264.375 345.831 266.704 345.499 268.129C345.167 269.553 338.921 270.524 337.833 270.359C336.744 270.193 334.994 270.387 334.281 270.998C333.568 271.61 327.905 271.839 327.212 270.185C326.52 268.531 327.501 267.971 327.501 267.971Z" fill="#FFB27D"/>
<path d="M343.59 206.943C343.59 206.943 331.367 209.323 326.612 213.248C321.756 217.257 303.924 240.964 305.051 249.183C306.193 257.519 326.019 270.417 326.019 270.417C326.019 270.417 329.908 271.707 330.046 265.527C330.046 265.527 319.587 250.108 320.139 248.321C320.484 247.2 335.901 234.868 335.901 234.868L343.59 206.943Z" fill="#AEC3FF"/>
<path d="M370.034 272.864C369.957 274.944 369.106 276.921 367.647 278.41L365.347 280.752C365.211 280.89 365.048 280.999 364.867 281.072C364.687 281.145 364.493 281.179 364.298 281.174C364.104 281.168 363.912 281.123 363.736 281.04C363.56 280.957 363.403 280.839 363.275 280.693L360.091 277.066C359.236 276.094 358.791 274.831 358.846 273.539C358.977 270.665 359.209 265.129 359.357 259.777C359.47 255.445 359.521 251.247 359.408 248.696C359.048 240.558 356.071 214.698 356.071 214.698H358.031C358.031 214.698 363.415 224.515 366.676 238.086C367.524 241.582 368.163 245.125 368.588 248.696C368.588 248.696 370.379 263.478 370.034 272.864Z" fill="#F99746"/>
<path d="M353.337 212.68L358.785 211.377C358.785 211.377 359.498 211.439 359.478 212.323C359.457 213.207 357.944 215.797 357.272 216.003C356.6 216.209 352.059 214.471 353.337 212.68Z" fill="#F99746"/>
<path d="M341.344 207.18C341.3 206.334 345.397 204.978 345.397 204.978C345.397 204.978 348.479 211.859 356.063 211.974C356.063 211.974 353.901 216.169 351.354 217.257C351.354 217.257 341.594 212.208 341.344 207.18Z" fill="#94B0ED"/>
<path d="M356.063 211.974C356.063 211.974 358.619 207.99 358.619 205.416C358.619 205.416 361.563 206.242 363.819 207.965C363.819 207.965 363.507 212.917 361.563 215.404C361.57 215.391 359.066 213.151 356.063 211.974Z" fill="#94B0ED"/>
<path d="M337.14 188.509C339.486 196.372 344.904 197.47 344.904 197.47C344.904 197.47 344.444 196.553 344.191 194.157C344.18 193.763 344.241 193.37 344.37 192.997C344.668 191.996 344.644 190.926 344.301 189.939C344.071 189.264 344.073 188.614 344.638 188.295C345.54 187.786 346.634 188.718 347.319 189.478C347.538 189.723 347.823 189.899 348.141 189.985C348.458 190.072 348.794 190.065 349.107 189.965C351.763 189.085 349.345 183.061 352.246 183.188C361.841 183.606 362.695 182.118 364.256 180.522C365.381 179.37 364.913 175.425 363.359 175.005C361.116 174.413 358.952 173.558 356.912 172.456C349.667 168.47 343.312 172.456 343.335 172.471C337.035 174.961 335.538 183.137 337.14 188.509Z" fill="#163560"/>
<path d="M896.041 416.365H922.873C924.798 415.066 922.362 402.348 922.362 402.348C922.362 402.348 915.038 399.578 913.771 405.213C912.503 410.848 904.441 412.639 900.176 413.325C897.255 413.799 896.332 415.399 896.041 416.365Z" fill="#243F66"/>
<path d="M900.482 275.186L913.004 404.984C913.004 404.984 915.631 409.015 923.959 406.296C923.959 406.296 930.387 385.332 932.308 361.401C932.336 361.008 932.367 360.613 932.398 360.218C933.031 351.576 933.79 339.539 934.506 327.597C935.807 305.903 936.964 284.554 936.964 284.554L900.482 275.186Z" fill="#1C468A"/>
<path d="M916.633 300.016C916.633 300.016 920.931 328.927 922.413 337.714C925.574 356.423 932.316 361.401 932.316 361.401C932.344 361.008 932.375 360.613 932.405 360.218C933.039 351.576 933.798 339.539 934.514 327.597L916.633 300.016Z" fill="#233862"/>
<path d="M856.045 240.609C856.045 240.609 853.559 237.6 852.212 237.177C850.865 236.753 848.284 234.758 847.947 235.581C847.61 236.404 849.687 237.674 849.577 238.614C849.529 239.029 847.921 239.052 846.143 239.032C843.886 239.004 841.137 237.793 841.032 238.341C840.659 240.349 843.623 244.002 846.7 244.328C849.179 244.583 852.623 244.073 856.763 244.514C858.21 244.664 856.045 240.609 856.045 240.609Z" fill="#FFB27D"/>
<path d="M854.344 245.034C854.428 245.289 863.349 246.764 871.074 247.837C875.62 248.474 879.763 248.971 881.424 248.989C885.058 249.032 892.011 247.809 900.235 244.356C905.363 242.193 910.25 239.502 914.819 236.328C919.229 233.27 919.365 230.874 923.032 225.96C934.417 210.707 919.454 204.257 911.226 207.185C905.535 209.209 902.085 212.657 899 217.326C895.349 222.851 892.371 229.003 883.282 234.32C876.433 238.326 856.02 239.417 856.02 239.417C855.268 240.005 854.739 240.831 854.52 241.759C854.318 242.838 854.259 243.939 854.344 245.034Z" fill="#739AF0"/>
<path d="M935.848 416.365H962.68C964.604 415.066 962.169 402.348 962.169 402.348C962.169 402.348 954.845 399.578 953.58 405.213C952.315 410.848 944.247 412.639 939.982 413.325C937.064 413.799 936.139 415.399 935.848 416.365Z" fill="#243F66"/>
<path d="M910.553 281.455L951.201 405.524C951.201 405.524 959.848 407.83 964.277 403.128C964.277 403.128 963.255 359.382 957.702 344.445C953.212 332.363 955.402 267.114 935.492 266.559C915.583 266.003 910.553 281.455 910.553 281.455Z" fill="#1C468A"/>
<path d="M901.252 282.248C907.523 285.469 915.659 287.732 929.088 286.861C941.993 286.022 949.88 282.492 949.478 279.414C949.279 277.885 949.087 276.307 948.919 274.661C948.196 267.573 947.897 259.15 949.374 247.042C949.754 243.902 950.24 240.564 950.651 237.661C951.162 234.126 951.541 231.236 951.495 230.145C951.495 230.145 947.406 211.846 944.339 208.905C943.246 207.855 941.641 206.971 939.694 206.27H939.676C930.45 202.957 913.495 203.706 905.997 210.18C904.975 211.064 901.356 217.165 901.254 223.761C901.126 232.938 897.178 280.158 901.252 282.248Z" fill="#739AF0"/>
<path d="M933.157 205.59C934.082 204.425 931.473 202.249 932.646 193.731C932.661 193.619 931.815 193.777 930.537 194.08C926.735 194.978 919.089 197.139 918.751 197.236H918.736C918.736 197.236 918.644 199.02 918.33 202.238C918.302 202.521 918.274 202.819 918.243 203.125C918.205 203.5 918.176 203.89 918.118 204.31C917.203 210.723 928.828 211.044 933.157 205.59Z" fill="#FFB27D"/>
<path d="M918.322 202.238C923.998 203.538 932.472 195.179 932.472 195.179C931.874 194.732 931.221 194.363 930.53 194.08C926.727 194.978 919.081 197.139 918.744 197.236H918.729C918.729 197.236 918.637 199.027 918.322 202.238Z" fill="#ED975D"/>
<path d="M916.393 196.784C918.12 197.362 919.898 197.775 921.703 198.018C926.047 198.604 931.779 198.273 933.578 193.008C936.607 184.167 940.478 178.866 931.562 175.257C926.791 173.322 923.74 173.218 921.667 173.96C919.866 174.594 918.803 175.866 918 177.125C916.268 179.831 912.787 195.237 916.393 196.784Z" fill="#FFB27D"/>
<path d="M918.355 169.757C915.102 172.68 916.945 178.06 921.315 178.371C923.065 178.496 924.506 178.427 925.503 178.881C927.719 179.862 928.117 183.57 928.156 184.743C928.194 185.915 928.352 186.914 931.363 186.208C931.721 186.089 932.112 186.113 932.454 186.274C933.704 187.013 932.109 190.607 931.626 191.371C931.626 191.371 930.933 193.938 932.472 195.194C932.658 195.342 935.676 196.66 942.949 185.553C944.094 183.81 945.185 179.885 943.419 176.103C941.654 172.321 934.411 168.18 928.028 166.729C924.09 165.822 920.791 167.568 918.355 169.757Z" fill="#163560"/>
<path d="M916.324 191.076C916.324 191.076 916.137 192.22 918.805 193.135C918.805 193.135 921.046 193.9 921.455 192.727C921.455 192.727 919.677 191.037 916.324 191.076Z" fill="white"/>
<path d="M871.074 247.845C875.62 248.482 879.763 248.979 881.424 248.997C885.058 249.04 892.011 247.817 900.235 244.363C900.569 243.194 900.907 235.877 900.191 235.385C898.014 233.891 893.682 242.327 886.412 244.519C880.228 246.382 873.06 247.539 871.074 247.845Z" fill="#4F7FD3"/>
<path d="M946.55 275.267C946.961 275.405 947.404 275.421 947.824 275.314C948.245 275.206 948.625 274.979 948.919 274.661C948.196 267.573 947.897 259.15 949.374 247.042C949.754 243.902 950.24 240.564 950.651 237.661C950.651 237.661 944.564 232.439 942.474 236.751C940.383 241.063 946.348 252.514 943.067 259.354C939.786 266.194 942.87 274.238 946.55 275.267Z" fill="#4F7FD3"/>
<path d="M955.637 271.235C955.637 271.235 952.346 273.616 951.502 273.473C949.031 273.063 947.751 271.054 945.456 271.246C943.161 271.437 938.301 273.995 938.871 274.582C940.915 276.71 944.056 275.558 945.533 276.858C946.555 277.76 947.179 279.635 950.899 279.253C954.62 278.871 957.924 275.815 957.924 275.815L955.637 271.235Z" fill="#FFB27D"/>
<path d="M939.678 206.252C939.678 206.252 954.05 210.259 964.277 224.311C974.504 238.364 977.821 247.857 973.791 254.894C969.761 261.931 961.936 274.345 954.331 279.579C954.331 279.579 950.529 278.766 950.828 272.968C950.828 272.968 960.163 253.118 959.826 250.432C959.199 245.434 945.906 232.76 943 230.145C940.095 227.53 939.678 206.252 939.678 206.252Z" fill="#739AF0"/>
<path d="M949.949 273.2C949.949 273.2 948.293 270.652 948.068 269.905C947.843 269.158 947.465 270.29 947.621 271.057C947.716 271.512 947.704 271.984 947.585 272.433L949.949 273.2Z" fill="#FFB27D"/>
<path d="M381.706 414.9H408.597C410.039 413.682 407.601 410.914 405.053 410.728C403.946 410.644 402.549 410.876 400.949 411.212C400.581 406.311 398.467 384.279 390.505 385.163C381.56 386.155 390.505 394.866 393.035 400.024C394.91 403.847 396.888 409.324 397.793 411.908C397.065 412.066 396.313 412.219 395.544 412.362C394.356 408.727 389.942 396.502 384.326 397.216C377.732 398.049 380.382 402.95 385.056 405.86C388.483 407.999 392.695 411.039 394.696 412.509C392.959 412.811 391.199 412.951 389.436 412.927C384.831 412.823 382.583 414.174 381.706 414.9Z" fill="#A8D29F"/>
<path d="M1039.04 415.168H1018.78C1017.7 414.248 1019.54 412.163 1021.45 412.023C1022.29 411.961 1023.34 412.135 1024.55 412.387C1024.83 408.694 1026.42 392.096 1032.42 392.763C1039.16 393.51 1032.42 400.075 1030.51 403.962C1029.1 406.839 1027.61 410.968 1026.93 412.915C1027.48 413.034 1028.05 413.149 1028.63 413.256C1029.52 410.516 1032.85 401.309 1037.08 401.844C1042.05 402.473 1040.05 406.176 1036.53 408.358C1033.95 409.969 1030.77 412.26 1029.27 413.366C1030.58 413.594 1031.9 413.7 1033.23 413.684C1036.69 413.587 1038.38 414.62 1039.04 415.168Z" fill="#A8D29F"/>
<path d="M771.942 396.889C773.219 397.399 777.819 396.989 777.967 396.634C778.116 396.28 775.113 392.779 773.827 392.259C773.522 392.135 773.195 392.073 772.865 392.075C772.536 392.078 772.21 392.145 771.906 392.273C771.602 392.401 771.327 392.588 771.096 392.822C770.864 393.056 770.682 393.334 770.558 393.639C770.434 393.943 770.371 394.269 770.374 394.598C770.376 394.927 770.444 395.252 770.572 395.555C770.701 395.858 770.888 396.132 771.123 396.363C771.358 396.594 771.636 396.776 771.942 396.9V396.889Z" fill="#A8D29F"/>
<path d="M783.528 399.076C782.805 400.259 782.48 404.846 782.817 405.052C783.155 405.259 787.095 402.863 787.816 401.683C787.999 401.402 788.123 401.088 788.181 400.758C788.24 400.428 788.232 400.09 788.157 399.764C788.083 399.437 787.943 399.129 787.747 398.857C787.551 398.586 787.302 398.356 787.016 398.181C786.729 398.007 786.41 397.892 786.078 397.843C785.746 397.793 785.408 397.811 785.082 397.894C784.757 397.978 784.452 398.125 784.185 398.328C783.918 398.531 783.695 398.785 783.528 399.076Z" fill="#A8D29F"/>
<path d="M777.339 408.055C778.66 408.475 783.216 407.708 783.326 407.333C783.436 406.959 780.185 403.704 778.864 403.284C778.55 403.183 778.219 403.146 777.891 403.173C777.562 403.2 777.242 403.291 776.948 403.442C776.655 403.592 776.394 403.799 776.181 404.05C775.968 404.301 775.806 404.591 775.706 404.905C775.605 405.218 775.567 405.548 775.594 405.876C775.622 406.204 775.713 406.523 775.864 406.815C776.015 407.108 776.222 407.368 776.474 407.58C776.726 407.793 777.017 407.954 777.331 408.055H777.339Z" fill="#A8D29F"/>
<path d="M784.026 412.497C784.026 412.392 783.515 402.007 777.814 396.645L777.934 396.517C783.689 401.928 784.2 412.385 784.203 412.489L784.026 412.497Z" fill="#A8D29F"/>
<path d="M803.057 397.114C802.257 397.644 799.081 397.993 798.93 397.766C798.779 397.539 800.333 394.754 801.133 394.224C801.323 394.088 801.538 393.993 801.766 393.942C801.994 393.892 802.23 393.887 802.459 393.93C802.689 393.972 802.907 394.06 803.102 394.188C803.297 394.316 803.464 394.482 803.593 394.676C803.722 394.87 803.811 395.088 803.854 395.317C803.897 395.546 803.893 395.781 803.843 396.008C803.793 396.236 803.698 396.451 803.563 396.641C803.428 396.831 803.256 396.991 803.057 397.114Z" fill="#A8D29F"/>
<path d="M795.495 400.197C796.149 400.901 797.005 403.969 796.806 404.155C796.607 404.341 793.599 403.261 792.945 402.56C792.789 402.393 792.668 402.196 792.589 401.982C792.509 401.768 792.473 401.541 792.481 401.313C792.49 401.085 792.544 400.861 792.639 400.653C792.735 400.446 792.87 400.259 793.038 400.104C793.206 399.949 793.403 399.829 793.617 399.749C793.832 399.67 794.06 399.634 794.288 399.642C794.517 399.651 794.742 399.704 794.95 399.8C795.158 399.895 795.345 400.03 795.5 400.197H795.495Z" fill="#A8D29F"/>
<path d="M800.943 405.432C800.105 405.901 796.911 406.005 796.775 405.768C796.64 405.531 798.406 402.871 799.244 402.402C799.647 402.177 800.123 402.121 800.567 402.246C801.011 402.372 801.388 402.668 801.613 403.07C801.838 403.471 801.894 403.946 801.769 404.389C801.643 404.832 801.346 405.207 800.943 405.432Z" fill="#A8D29F"/>
<path d="M797.018 409.377C797.018 409.306 795.909 402.185 799.037 397.758L798.937 397.687C795.781 402.157 796.893 409.324 796.893 409.41L797.018 409.377Z" fill="#A8D29F"/>
<path d="M791.373 411.89L791.01 411.834C789.582 393.398 783.937 380.171 783.855 379.99L784.185 379.847C784.266 380.031 789.952 393.347 791.373 411.89Z" fill="#A8D29F"/>
<path d="M780.03 378.135C780.725 378.922 783.983 380.173 784.21 379.987C784.438 379.801 783.579 376.407 782.884 375.622C782.719 375.432 782.519 375.277 782.293 375.165C782.068 375.053 781.823 374.987 781.572 374.97C781.321 374.953 781.069 374.986 780.831 375.067C780.593 375.148 780.373 375.275 780.184 375.441C779.996 375.607 779.842 375.808 779.732 376.034C779.622 376.26 779.558 376.505 779.544 376.755C779.529 377.006 779.565 377.257 779.648 377.493C779.732 377.73 779.861 377.948 780.03 378.135Z" fill="white"/>
<path d="M785.023 375.392C784.394 376.233 783.824 379.676 784.065 379.855C784.305 380.033 787.448 378.504 788.077 377.663C788.226 377.462 788.335 377.234 788.396 376.992C788.457 376.749 788.469 376.497 788.433 376.249C788.396 376.002 788.311 375.764 788.182 375.549C788.053 375.335 787.883 375.148 787.682 374.999C787.481 374.849 787.252 374.741 787.008 374.681C786.765 374.62 786.512 374.607 786.264 374.644C786.016 374.68 785.778 374.765 785.562 374.894C785.347 375.022 785.16 375.192 785.01 375.392H785.023Z" fill="white"/>
<path d="M788.772 379.052C787.75 378.777 784.338 379.506 784.259 379.794C784.18 380.082 786.755 382.442 787.77 382.717C788.011 382.782 788.263 382.8 788.511 382.768C788.759 382.737 788.999 382.657 789.216 382.533C789.433 382.41 789.624 382.244 789.777 382.047C789.93 381.85 790.042 381.625 790.108 381.384C790.174 381.143 790.192 380.892 790.16 380.645C790.128 380.397 790.048 380.158 789.924 379.942C789.8 379.725 789.634 379.535 789.437 379.383C789.239 379.23 789.013 379.118 788.772 379.052Z" fill="white"/>
<path d="M786.462 383.614C786.359 382.571 784.466 379.638 784.162 379.669C783.858 379.699 782.564 382.936 782.664 383.981C782.713 384.482 782.96 384.944 783.35 385.264C783.74 385.584 784.241 385.737 784.744 385.688C785.247 385.64 785.71 385.394 786.031 385.005C786.352 384.616 786.505 384.115 786.456 383.614H786.462Z" fill="white"/>
<path d="M781.274 383.39C782.204 382.903 784.21 380.046 784.085 379.781C783.96 379.516 780.446 379.539 779.516 380.036C779.293 380.151 779.095 380.309 778.933 380.5C778.772 380.692 778.65 380.913 778.575 381.152C778.499 381.391 778.472 381.642 778.494 381.892C778.517 382.141 778.589 382.384 778.705 382.605C778.822 382.827 778.982 383.023 779.175 383.183C779.368 383.343 779.591 383.463 779.831 383.537C780.071 383.611 780.323 383.636 780.573 383.612C780.823 383.588 781.065 383.515 781.287 383.397L781.274 383.39Z" fill="white"/>
<path d="M783.451 379.692C783.471 379.569 783.527 379.455 783.612 379.363C783.697 379.272 783.807 379.208 783.929 379.18C784.05 379.152 784.177 379.16 784.294 379.204C784.411 379.248 784.512 379.326 784.584 379.427C784.657 379.528 784.697 379.649 784.7 379.773C784.704 379.898 784.67 380.02 784.603 380.126C784.537 380.231 784.44 380.314 784.326 380.364C784.212 380.414 784.085 380.43 783.962 380.408C783.8 380.379 783.655 380.288 783.56 380.154C783.464 380.02 783.425 379.854 783.451 379.692Z" fill="#163560"/>
<path d="M791.268 393.044C790.246 394.318 789.117 399.637 789.48 399.925C789.842 400.213 794.846 398.041 795.868 396.772C796.136 396.474 796.341 396.124 796.469 395.745C796.598 395.365 796.648 394.964 796.616 394.564C796.585 394.165 796.472 393.776 796.286 393.421C796.099 393.067 795.843 392.753 795.531 392.5C795.22 392.247 794.86 392.06 794.474 391.95C794.088 391.839 793.683 391.808 793.285 391.858C792.886 391.908 792.502 392.039 792.156 392.241C791.809 392.443 791.507 392.714 791.268 393.036V393.044Z" fill="#A8D29F"/>
<path d="M770.784 413.776H770.528C767.958 401.668 763.048 393.388 762.979 393.27L763.186 393.148C763.266 393.258 768.211 401.594 770.784 413.776Z" fill="#A8D29F"/>
<path d="M760.286 392.371C760.817 392.832 763.097 393.39 763.225 393.235C763.352 393.079 762.491 390.913 761.947 390.452C761.823 390.329 761.675 390.234 761.512 390.171C761.349 390.108 761.175 390.079 761.001 390.085C760.826 390.092 760.655 390.134 760.498 390.209C760.34 390.284 760.2 390.391 760.085 390.522C759.971 390.654 759.884 390.807 759.832 390.973C759.779 391.139 759.761 391.314 759.778 391.487C759.796 391.66 759.849 391.828 759.934 391.98C760.019 392.132 760.134 392.265 760.273 392.371H760.286Z" fill="white"/>
<path d="M763.36 390.115C763.015 390.727 762.941 393.061 763.105 393.158C763.268 393.255 765.233 391.965 765.576 391.354C765.672 391.207 765.737 391.043 765.767 390.87C765.797 390.698 765.79 390.521 765.748 390.351C765.707 390.181 765.63 390.021 765.524 389.882C765.417 389.743 765.283 389.627 765.13 389.542C764.977 389.457 764.808 389.404 764.633 389.386C764.458 389.369 764.282 389.388 764.115 389.442C763.948 389.496 763.794 389.583 763.662 389.699C763.53 389.815 763.424 389.957 763.35 390.115H763.36Z" fill="white"/>
<path d="M766.169 392.213C765.471 392.118 763.266 392.903 763.24 393.102C763.215 393.301 765.129 394.631 765.826 394.733C765.997 394.767 766.174 394.766 766.344 394.73C766.515 394.693 766.676 394.622 766.819 394.521C766.961 394.42 767.08 394.291 767.171 394.142C767.261 393.993 767.32 393.827 767.343 393.655C767.366 393.482 767.354 393.307 767.307 393.139C767.26 392.972 767.179 392.816 767.069 392.68C766.959 392.545 766.822 392.434 766.667 392.354C766.512 392.273 766.343 392.225 766.169 392.213Z" fill="white"/>
<path d="M765.026 395.444C764.868 394.759 763.353 392.98 763.156 393.026C762.959 393.072 762.389 395.335 762.545 396.018C762.642 396.323 762.852 396.58 763.131 396.738C763.41 396.897 763.738 396.944 764.051 396.872C764.363 396.8 764.637 396.613 764.818 396.348C764.999 396.084 765.073 395.761 765.026 395.444Z" fill="white"/>
<path d="M761.574 395.748C762.151 395.345 763.23 393.273 763.107 393.107C762.985 392.942 760.672 393.268 760.097 393.673C759.945 393.763 759.813 393.882 759.709 394.025C759.606 394.168 759.533 394.331 759.496 394.503C759.459 394.675 759.458 394.854 759.494 395.026C759.529 395.199 759.6 395.362 759.702 395.506C759.804 395.65 759.935 395.771 760.086 395.862C760.237 395.953 760.406 396.012 760.581 396.035C760.756 396.057 760.934 396.043 761.104 395.994C761.273 395.945 761.431 395.861 761.566 395.748H761.574Z" fill="white"/>
<path d="M762.693 393.097C762.695 393.014 762.722 392.933 762.77 392.865C762.818 392.797 762.886 392.745 762.964 392.715C763.041 392.685 763.127 392.679 763.208 392.697C763.289 392.716 763.363 392.758 763.421 392.818C763.478 392.879 763.516 392.955 763.53 393.037C763.544 393.119 763.534 393.203 763.499 393.279C763.465 393.355 763.409 393.42 763.339 393.464C763.268 393.508 763.186 393.53 763.102 393.528C762.991 393.524 762.885 393.477 762.809 393.397C762.732 393.316 762.69 393.208 762.693 393.097Z" fill="#163560"/>
<path d="M769.056 401.278C768.481 402.211 768.21 405.842 768.476 406.005C768.742 406.169 771.87 404.288 772.445 403.355C772.721 402.907 772.807 402.368 772.685 401.856C772.563 401.344 772.241 400.902 771.792 400.627C771.343 400.351 770.802 400.265 770.289 400.387C769.776 400.509 769.333 400.83 769.056 401.278Z" fill="#A8D29F"/>
<path d="M810.002 412.176L810.324 412.125C811.602 395.707 816.624 383.925 816.695 383.764L816.401 383.639C816.327 383.8 811.265 395.661 810.002 412.176Z" fill="#A8D29F"/>
<path d="M820.102 382.113C819.483 382.814 816.58 383.94 816.379 383.764C816.177 383.588 816.941 380.573 817.559 379.875C817.706 379.708 817.885 379.571 818.086 379.473C818.286 379.374 818.504 379.316 818.727 379.302C818.949 379.287 819.173 379.317 819.384 379.389C819.596 379.46 819.791 379.573 819.959 379.72C820.127 379.867 820.264 380.045 820.362 380.245C820.461 380.445 820.519 380.662 820.534 380.884C820.548 381.106 820.519 381.329 820.447 381.54C820.375 381.751 820.262 381.945 820.115 382.113H820.102Z" fill="white"/>
<path d="M815.655 379.671C816.215 380.421 816.723 383.494 816.509 383.645C816.294 383.795 813.493 382.442 812.931 381.692C812.671 381.332 812.564 380.884 812.632 380.446C812.701 380.007 812.939 379.613 813.296 379.348C813.653 379.083 814.1 378.968 814.541 379.029C814.981 379.089 815.381 379.32 815.653 379.671H815.655Z" fill="white"/>
<path d="M812.315 382.931C813.22 382.676 816.266 383.334 816.335 383.591C816.404 383.848 814.112 385.948 813.207 386.193C812.773 386.311 812.31 386.252 811.92 386.03C811.53 385.807 811.244 385.439 811.126 385.007C811.007 384.574 811.066 384.112 811.289 383.723C811.512 383.334 811.881 383.049 812.315 382.931Z" fill="white"/>
<path d="M814.372 386.993C814.464 386.063 816.161 383.453 816.417 383.479C816.672 383.504 817.84 386.389 817.751 387.32C817.707 387.766 817.488 388.178 817.14 388.463C816.793 388.748 816.346 388.884 815.898 388.841C815.45 388.798 815.038 388.579 814.752 388.232C814.465 387.886 814.329 387.44 814.372 386.993Z" fill="white"/>
<path d="M818.993 386.795C818.165 386.359 816.378 383.815 816.501 383.578C816.624 383.341 819.741 383.364 820.569 383.797C820.767 383.901 820.942 384.042 821.084 384.212C821.227 384.383 821.335 384.58 821.401 384.792C821.467 385.004 821.491 385.228 821.471 385.449C821.451 385.67 821.387 385.885 821.284 386.082C821.18 386.279 821.039 386.454 820.868 386.596C820.696 386.738 820.499 386.845 820.286 386.912C820.073 386.978 819.85 387.001 819.628 386.981C819.406 386.961 819.19 386.898 818.993 386.795Z" fill="white"/>
<path d="M817.053 383.492C817.036 383.382 816.987 383.281 816.912 383.199C816.836 383.118 816.739 383.061 816.631 383.035C816.523 383.009 816.41 383.016 816.306 383.054C816.202 383.093 816.112 383.161 816.047 383.251C815.982 383.34 815.945 383.447 815.941 383.557C815.937 383.668 815.966 383.777 816.024 383.871C816.082 383.965 816.167 384.04 816.268 384.086C816.369 384.132 816.481 384.147 816.591 384.129C816.663 384.117 816.732 384.092 816.795 384.053C816.857 384.015 816.911 383.965 816.954 383.906C816.997 383.847 817.028 383.78 817.045 383.709C817.062 383.638 817.065 383.564 817.053 383.492Z" fill="#163560"/>
<path d="M809.249 399.787C810.171 400.916 811.165 405.649 810.843 405.921C810.521 406.194 806.067 404.245 805.145 403.118C804.704 402.575 804.498 401.88 804.57 401.185C804.643 400.491 804.989 399.853 805.532 399.413C806.076 398.972 806.772 398.764 807.469 398.835C808.165 398.906 808.806 399.249 809.249 399.79V399.787Z" fill="#A8D29F"/>
<path d="M757.776 415.045C757.776 415.045 759.601 410.256 766.232 409.948C772.864 409.64 777.428 413.557 782.904 411.752C788.381 409.948 797.45 405.891 806.026 408.59C814.602 411.289 816.049 415.038 816.049 415.038L757.776 415.045Z" fill="#A8D29F"/>
<path d="M1202.85 414.9H217.147C216.513 414.9 216 415.293 216 415.777V416.123C216 416.608 216.513 417 217.147 417H1202.85C1203.49 417 1204 416.608 1204 416.123V415.777C1204 415.293 1203.49 414.9 1202.85 414.9Z" fill="#233862"/>
<path d="M624.412 296.127C625.69 297.582 631.728 299.922 632.145 299.557C632.561 299.193 630.982 292.931 629.694 291.479C629.388 291.133 629.016 290.85 628.601 290.648C628.186 290.445 627.734 290.326 627.272 290.297C626.811 290.268 626.348 290.33 625.91 290.48C625.473 290.63 625.069 290.864 624.722 291.169C624.375 291.474 624.092 291.845 623.889 292.259C623.686 292.673 623.566 293.123 623.537 293.584C623.509 294.044 623.571 294.506 623.721 294.942C623.871 295.379 624.106 295.781 624.412 296.127Z" fill="white"/>
<path d="M633.652 291.055C632.49 292.613 631.432 298.979 631.879 299.31C632.326 299.642 638.137 296.813 639.29 295.256C639.566 294.886 639.767 294.465 639.881 294.018C639.994 293.571 640.018 293.106 639.952 292.649C639.885 292.193 639.729 291.754 639.492 291.357C639.255 290.961 638.942 290.615 638.572 290.339C638.201 290.064 637.779 289.863 637.331 289.75C636.882 289.637 636.416 289.613 635.958 289.679C635.5 289.746 635.06 289.902 634.663 290.138C634.266 290.374 633.919 290.686 633.642 291.055H633.652Z" fill="white"/>
<path d="M640.588 297.824C638.71 297.315 632.382 298.663 632.237 299.198C632.091 299.733 636.857 304.094 638.735 304.606C639.636 304.85 640.598 304.726 641.408 304.264C642.218 303.801 642.811 303.036 643.056 302.138C643.302 301.239 643.18 300.281 642.717 299.472C642.254 298.663 641.488 298.071 640.588 297.824Z" fill="white"/>
<path d="M636.313 306.265C636.126 304.333 632.617 298.91 632.065 298.964C631.513 299.017 629.111 305.009 629.298 306.941C629.399 307.859 629.859 308.701 630.578 309.284C631.297 309.867 632.217 310.144 633.139 310.055C634.062 309.966 634.912 309.519 635.506 308.81C636.1 308.1 636.389 307.186 636.313 306.265Z" fill="white"/>
<path d="M626.714 305.85C628.437 304.948 632.15 299.662 631.892 299.173C631.634 298.683 625.163 298.727 623.441 299.629C622.614 300.062 621.993 300.805 621.715 301.694C621.437 302.584 621.524 303.547 621.959 304.372C622.393 305.197 623.138 305.816 624.029 306.093C624.921 306.37 625.887 306.283 626.714 305.85Z" fill="white"/>
<path d="M630.744 298.989C630.78 298.763 630.883 298.553 631.039 298.385C631.195 298.217 631.397 298.099 631.62 298.046C631.843 297.993 632.077 298.007 632.293 298.087C632.508 298.166 632.694 298.307 632.829 298.493C632.964 298.678 633.04 298.899 633.049 299.127C633.058 299.356 632.999 299.582 632.879 299.777C632.759 299.972 632.583 300.127 632.375 300.223C632.166 300.318 631.934 300.35 631.708 300.314C631.404 300.266 631.132 300.099 630.951 299.85C630.771 299.602 630.696 299.292 630.744 298.989Z" fill="#163560"/>
<path d="M757.549 329.717C758.162 330.41 761.037 331.527 761.237 331.351C761.436 331.175 760.682 328.193 760.069 327.5C759.923 327.335 759.746 327.2 759.547 327.103C759.349 327.007 759.134 326.95 758.914 326.936C758.693 326.922 758.473 326.952 758.264 327.023C758.055 327.095 757.863 327.206 757.697 327.352C757.532 327.498 757.397 327.674 757.3 327.872C757.203 328.07 757.146 328.284 757.132 328.504C757.118 328.724 757.148 328.944 757.22 329.152C757.291 329.36 757.403 329.552 757.549 329.717Z" fill="white"/>
<path d="M761.96 327.299C761.405 328.04 760.902 331.075 761.114 331.233C761.326 331.391 764.101 330.043 764.656 329.302C764.909 328.944 765.013 328.502 764.944 328.07C764.875 327.638 764.64 327.25 764.288 326.988C763.936 326.727 763.495 326.613 763.06 326.671C762.625 326.729 762.23 326.954 761.96 327.299Z" fill="white"/>
<path d="M765.261 330.525C764.367 330.283 761.349 330.925 761.28 331.18C761.211 331.435 763.483 333.517 764.38 333.759C764.596 333.826 764.823 333.85 765.048 333.827C765.273 333.805 765.491 333.738 765.69 333.629C765.888 333.521 766.062 333.374 766.202 333.197C766.342 333.02 766.445 332.816 766.504 332.599C766.564 332.381 766.578 332.154 766.548 331.93C766.517 331.707 766.441 331.492 766.325 331.298C766.209 331.105 766.055 330.936 765.872 330.803C765.69 330.671 765.482 330.576 765.261 330.525Z" fill="white"/>
<path d="M763.238 334.552C763.148 333.629 761.474 331.045 761.211 331.07C760.948 331.096 759.803 333.953 759.892 334.873C759.951 335.303 760.173 335.693 760.514 335.963C760.855 336.232 761.287 336.36 761.72 336.318C762.153 336.277 762.553 336.069 762.836 335.74C763.119 335.411 763.263 334.985 763.238 334.552Z" fill="white"/>
<path d="M758.638 334.353C759.458 333.922 761.229 331.402 761.106 331.167C760.984 330.933 757.897 330.956 757.074 331.386C756.87 331.484 756.688 331.621 756.538 331.79C756.389 331.96 756.275 332.157 756.204 332.371C756.133 332.585 756.106 332.811 756.124 333.036C756.143 333.261 756.207 333.48 756.312 333.679C756.417 333.879 756.562 334.055 756.737 334.198C756.912 334.34 757.114 334.446 757.331 334.509C757.548 334.572 757.776 334.591 758 334.564C758.225 334.537 758.442 334.465 758.638 334.353Z" fill="white"/>
<path d="M760.57 331.081C760.587 330.973 760.636 330.873 760.711 330.794C760.785 330.714 760.881 330.658 760.988 330.633C761.094 330.608 761.205 330.615 761.307 330.653C761.41 330.691 761.498 330.759 761.562 330.847C761.626 330.935 761.662 331.04 761.666 331.149C761.67 331.258 761.642 331.365 761.584 331.458C761.527 331.551 761.444 331.624 761.344 331.67C761.245 331.715 761.135 331.73 761.027 331.713C760.955 331.701 760.887 331.676 760.825 331.638C760.763 331.6 760.709 331.55 760.667 331.491C760.624 331.433 760.594 331.366 760.577 331.296C760.561 331.225 760.558 331.152 760.57 331.081Z" fill="#163560"/>
<path d="M723 146C723 138.82 728.82 133 736 133H835C842.18 133 848 138.82 848 146V174H736C728.82 174 723 168.18 723 161V146Z" fill="white"/>
<path d="M629 188C629 180.82 623.18 175 616 175H518C510.82 175 505 180.82 505 188V215H616C623.18 215 629 209.18 629 202V188Z" fill="#FC8900"/>
<path d="M739.512 141.3V144.6H735.112V141.3H734.144V149H735.112V145.502H739.512V149H740.48V141.3H739.512ZM742.22 146.217C742.198 147.79 743.397 149.187 745.08 149.154C746.763 149.187 747.962 147.79 747.94 146.217C747.962 144.644 746.763 143.247 745.08 143.28C743.397 143.247 742.198 144.644 742.22 146.217ZM746.972 146.217C746.972 146.822 746.796 147.328 746.444 147.713C746.103 148.098 745.641 148.296 745.08 148.296C744.519 148.296 744.057 148.098 743.705 147.713C743.364 147.328 743.188 146.822 743.188 146.217C743.188 145.612 743.364 145.106 743.705 144.721C744.057 144.336 744.519 144.138 745.08 144.138C745.641 144.138 746.103 144.336 746.444 144.721C746.796 145.106 746.972 145.612 746.972 146.217ZM756.412 143.434L754.993 147.867L753.519 143.434H752.507L751.033 147.867L749.614 143.434H748.679L750.505 149H751.517L753.013 144.49L754.509 149H755.521L757.347 143.434H756.412ZM767.884 143.434L766.465 147.867L764.991 143.434H763.979L762.505 147.867L761.086 143.434H760.151L761.977 149H762.989L764.485 144.49L765.981 149H766.993L768.819 143.434H767.884ZM774.267 143.434V144.457C773.948 143.742 773.145 143.28 772.21 143.28C770.681 143.28 769.559 144.501 769.559 146.217C769.559 147.933 770.681 149.154 772.21 149.154C773.145 149.154 773.948 148.692 774.267 147.977V149H775.191V143.434H774.267ZM774.311 146.217C774.311 146.822 774.135 147.328 773.783 147.713C773.442 148.098 772.98 148.296 772.419 148.296C771.858 148.296 771.396 148.098 771.044 147.713C770.703 147.328 770.527 146.822 770.527 146.217C770.527 145.612 770.703 145.106 771.044 144.721C771.396 144.336 771.858 144.138 772.419 144.138C772.98 144.138 773.442 144.336 773.783 144.721C774.135 145.106 774.311 145.612 774.311 146.217ZM776.646 147.944C777.086 148.692 777.999 149.154 779.132 149.154C780.496 149.154 781.321 148.461 781.321 147.405C781.321 146.624 780.848 146.129 779.748 145.876L778.769 145.656C778.021 145.48 777.768 145.271 777.768 144.908C777.768 144.413 778.186 144.116 778.978 144.116C779.671 144.116 780.232 144.347 780.595 144.776L781.233 144.226C780.782 143.621 780.001 143.28 779.033 143.28C777.68 143.28 776.844 143.951 776.844 144.93C776.844 145.711 777.394 146.217 778.538 146.481L779.418 146.679C780.122 146.844 780.397 147.075 780.397 147.471C780.397 147.988 779.913 148.318 779.121 148.318C778.362 148.318 777.713 148.021 777.317 147.449L776.646 147.944ZM790.188 145.436C790.188 144.061 789.473 143.28 788.208 143.28C787.295 143.28 786.58 143.676 786.272 144.38V140.948H785.348V149H786.272V145.689C786.272 144.754 786.987 144.138 787.988 144.138C788.868 144.138 789.264 144.6 789.264 145.656V149H790.188V145.436ZM797.132 146.503C797.154 146.338 797.165 146.173 797.165 146.008C797.165 144.391 796.065 143.28 794.514 143.28C792.875 143.28 791.731 144.523 791.731 146.228C791.731 147.955 792.908 149.154 794.591 149.154C795.614 149.154 796.472 148.714 797.011 147.955L796.384 147.427C795.922 148.01 795.328 148.296 794.613 148.296C793.524 148.296 792.776 147.614 792.677 146.503H797.132ZM792.699 145.755C792.864 144.754 793.535 144.138 794.514 144.138C795.482 144.138 796.131 144.732 796.219 145.755H792.699ZM805.57 143.434V144.457C805.251 143.742 804.448 143.28 803.513 143.28C801.984 143.28 800.862 144.501 800.862 146.217C800.862 147.933 801.984 149.154 803.513 149.154C804.448 149.154 805.251 148.692 805.57 147.977V149H806.494V143.434H805.57ZM805.614 146.217C805.614 146.822 805.438 147.328 805.086 147.713C804.745 148.098 804.283 148.296 803.722 148.296C803.161 148.296 802.699 148.098 802.347 147.713C802.006 147.328 801.83 146.822 801.83 146.217C801.83 145.612 802.006 145.106 802.347 144.721C802.699 144.336 803.161 144.138 803.722 144.138C804.283 144.138 804.745 144.336 805.086 144.721C805.438 145.106 805.614 145.612 805.614 146.217ZM814.108 146.217C814.108 144.501 812.986 143.28 811.468 143.28C810.533 143.28 809.741 143.742 809.4 144.457V140.948H808.476V149H809.4V147.977C809.741 148.692 810.533 149.154 811.468 149.154C812.986 149.154 814.108 147.933 814.108 146.217ZM813.14 146.217C813.14 146.822 812.964 147.328 812.612 147.713C812.271 148.098 811.809 148.296 811.248 148.296C810.687 148.296 810.225 148.098 809.873 147.713C809.532 147.328 809.356 146.822 809.356 146.217C809.356 145.612 809.532 145.106 809.873 144.721C810.225 144.336 810.687 144.138 811.248 144.138C811.809 144.138 812.271 144.336 812.612 144.721C812.964 145.106 813.14 145.612 813.14 146.217ZM815.695 149H816.619V140.948H815.695V149ZM823.6 146.503C823.622 146.338 823.633 146.173 823.633 146.008C823.633 144.391 822.533 143.28 820.982 143.28C819.343 143.28 818.199 144.523 818.199 146.228C818.199 147.955 819.376 149.154 821.059 149.154C822.082 149.154 822.94 148.714 823.479 147.955L822.852 147.427C822.39 148.01 821.796 148.296 821.081 148.296C819.992 148.296 819.244 147.614 819.145 146.503H823.6ZM819.167 145.755C819.332 144.754 820.003 144.138 820.982 144.138C821.95 144.138 822.599 144.732 822.687 145.755H819.167ZM827.972 147.57C827.972 148.571 828.566 149.088 829.666 149.088C830.018 149.088 830.348 149.044 830.667 148.945V148.175C830.348 148.241 830.051 148.274 829.798 148.274C829.171 148.274 828.896 148.043 828.896 147.504V144.226H830.645V143.434H828.896V141.784H827.972V143.434H826.861V144.226H827.972V147.57ZM831.573 146.217C831.551 147.79 832.75 149.187 834.433 149.154C836.116 149.187 837.315 147.79 837.293 146.217C837.315 144.644 836.116 143.247 834.433 143.28C832.75 143.247 831.551 144.644 831.573 146.217ZM836.325 146.217C836.325 146.822 836.149 147.328 835.797 147.713C835.456 148.098 834.994 148.296 834.433 148.296C833.872 148.296 833.41 148.098 833.058 147.713C832.717 147.328 832.541 146.822 832.541 146.217C832.541 145.612 832.717 145.106 833.058 144.721C833.41 144.336 833.872 144.138 834.433 144.138C834.994 144.138 835.456 144.336 835.797 144.721C836.149 145.106 836.325 145.612 836.325 146.217ZM739.622 162.217C739.622 160.501 738.5 159.28 736.982 159.28C736.047 159.28 735.255 159.742 734.914 160.457V159.434H733.99V167.2H734.914V163.977C735.255 164.692 736.047 165.154 736.982 165.154C738.5 165.154 739.622 163.933 739.622 162.217ZM738.654 162.217C738.654 162.822 738.478 163.328 738.126 163.713C737.785 164.098 737.323 164.296 736.762 164.296C736.201 164.296 735.739 164.098 735.387 163.713C735.046 163.328 734.87 162.822 734.87 162.217C734.87 161.612 735.046 161.106 735.387 160.721C735.739 160.336 736.201 160.138 736.762 160.138C737.323 160.138 737.785 160.336 738.126 160.721C738.478 161.106 738.654 161.612 738.654 162.217ZM745.521 159.434V160.457C745.202 159.742 744.399 159.28 743.464 159.28C741.935 159.28 740.813 160.501 740.813 162.217C740.813 163.933 741.935 165.154 743.464 165.154C744.399 165.154 745.202 164.692 745.521 163.977V165H746.445V159.434H745.521ZM745.565 162.217C745.565 162.822 745.389 163.328 745.037 163.713C744.696 164.098 744.234 164.296 743.673 164.296C743.112 164.296 742.65 164.098 742.298 163.713C741.957 163.328 741.781 162.822 741.781 162.217C741.781 161.612 741.957 161.106 742.298 160.721C742.65 160.336 743.112 160.138 743.673 160.138C744.234 160.138 744.696 160.336 745.037 160.721C745.389 161.106 745.565 161.612 745.565 162.217ZM752.223 159.434V162.591C752.223 163.515 751.497 164.142 750.485 164.142C749.616 164.142 749.209 163.68 749.209 162.624V159.434H748.285V162.844C748.285 164.241 749.022 165 750.264 165C751.178 165 751.904 164.604 752.223 163.9V164.461C752.223 165.814 751.563 166.496 750.408 166.496C749.748 166.496 749.11 166.265 748.659 165.858L748.12 166.518C748.637 167.046 749.495 167.354 750.43 167.354C752.146 167.354 753.147 166.342 753.147 164.461V159.434H752.223ZM762.506 161.436C762.506 160.061 761.791 159.28 760.526 159.28C759.613 159.28 758.898 159.676 758.59 160.38V156.948H757.666V165H758.59V161.689C758.59 160.754 759.305 160.138 760.306 160.138C761.186 160.138 761.582 160.6 761.582 161.656V165H762.506V161.436ZM764.279 157.63C764.279 157.993 764.554 158.268 764.917 158.268C765.28 158.268 765.555 157.993 765.555 157.63C765.555 157.267 765.28 156.992 764.917 156.992C764.554 156.992 764.279 157.267 764.279 157.63ZM764.455 165H765.379V159.434H764.455V165ZM766.838 163.944C767.278 164.692 768.191 165.154 769.324 165.154C770.688 165.154 771.513 164.461 771.513 163.405C771.513 162.624 771.04 162.129 769.94 161.876L768.961 161.656C768.213 161.48 767.96 161.271 767.96 160.908C767.96 160.413 768.378 160.116 769.17 160.116C769.863 160.116 770.424 160.347 770.787 160.776L771.425 160.226C770.974 159.621 770.193 159.28 769.225 159.28C767.872 159.28 767.036 159.951 767.036 160.93C767.036 161.711 767.586 162.217 768.73 162.481L769.61 162.679C770.314 162.844 770.589 163.075 770.589 163.471C770.589 163.988 770.105 164.318 769.313 164.318C768.554 164.318 767.905 164.021 767.509 163.449L766.838 163.944ZM780.381 161.436C780.381 160.061 779.666 159.28 778.401 159.28C777.488 159.28 776.773 159.676 776.465 160.38V156.948H775.541V165H776.465V161.689C776.465 160.754 777.18 160.138 778.181 160.138C779.061 160.138 779.457 160.6 779.457 161.656V165H780.381V161.436ZM781.923 162.217C781.901 163.79 783.1 165.187 784.783 165.154C786.466 165.187 787.665 163.79 787.643 162.217C787.665 160.644 786.466 159.247 784.783 159.28C783.1 159.247 781.901 160.644 781.923 162.217ZM786.675 162.217C786.675 162.822 786.499 163.328 786.147 163.713C785.806 164.098 785.344 164.296 784.783 164.296C784.222 164.296 783.76 164.098 783.408 163.713C783.067 163.328 782.891 162.822 782.891 162.217C782.891 161.612 783.067 161.106 783.408 160.721C783.76 160.336 784.222 160.138 784.783 160.138C785.344 160.138 785.806 160.336 786.147 160.721C786.499 161.106 786.675 161.612 786.675 162.217ZM789.116 162.921C789.116 164.241 790.073 165.154 791.514 165.154C792.955 165.154 793.912 164.241 793.912 162.921V159.434H792.988V162.866C792.988 163.79 792.449 164.296 791.514 164.296C790.579 164.296 790.04 163.79 790.04 162.866V159.434H789.116V162.921ZM795.251 163.944C795.691 164.692 796.604 165.154 797.737 165.154C799.101 165.154 799.926 164.461 799.926 163.405C799.926 162.624 799.453 162.129 798.353 161.876L797.374 161.656C796.626 161.48 796.373 161.271 796.373 160.908C796.373 160.413 796.791 160.116 797.583 160.116C798.276 160.116 798.837 160.347 799.2 160.776L799.838 160.226C799.387 159.621 798.606 159.28 797.638 159.28C796.285 159.28 795.449 159.951 795.449 160.93C795.449 161.711 795.999 162.217 797.143 162.481L798.023 162.679C798.727 162.844 799.002 163.075 799.002 163.471C799.002 163.988 798.518 164.318 797.726 164.318C796.967 164.318 796.318 164.021 795.922 163.449L795.251 163.944ZM806.424 162.503C806.446 162.338 806.457 162.173 806.457 162.008C806.457 160.391 805.357 159.28 803.806 159.28C802.167 159.28 801.023 160.523 801.023 162.228C801.023 163.955 802.2 165.154 803.883 165.154C804.906 165.154 805.764 164.714 806.303 163.955L805.676 163.427C805.214 164.01 804.62 164.296 803.905 164.296C802.816 164.296 802.068 163.614 801.969 162.503H806.424ZM801.991 161.755C802.156 160.754 802.827 160.138 803.806 160.138C804.774 160.138 805.423 160.732 805.511 161.755H801.991ZM813.674 159.423C813.531 159.368 813.355 159.346 813.168 159.346C812.343 159.346 811.727 159.764 811.474 160.479V159.434H810.55V165H811.474V162.151C811.474 160.842 812.101 160.204 813.19 160.204C813.355 160.204 813.509 160.215 813.674 160.237V159.423ZM819.723 162.503C819.745 162.338 819.756 162.173 819.756 162.008C819.756 160.391 818.656 159.28 817.105 159.28C815.466 159.28 814.322 160.523 814.322 162.228C814.322 163.955 815.499 165.154 817.182 165.154C818.205 165.154 819.063 164.714 819.602 163.955L818.975 163.427C818.513 164.01 817.919 164.296 817.204 164.296C816.115 164.296 815.367 163.614 815.268 162.503H819.723ZM815.29 161.755C815.455 160.754 816.126 160.138 817.105 160.138C818.073 160.138 818.722 160.732 818.81 161.755H815.29ZM826.153 161.436C826.153 160.061 825.438 159.28 824.173 159.28C823.26 159.28 822.545 159.676 822.237 160.38V159.434H821.313V165H822.237V161.689C822.237 160.754 822.952 160.138 823.953 160.138C824.833 160.138 825.229 160.6 825.229 161.656V165H826.153V161.436ZM828.434 163.57C828.434 164.571 829.028 165.088 830.128 165.088C830.48 165.088 830.81 165.044 831.129 164.945V164.175C830.81 164.241 830.513 164.274 830.26 164.274C829.633 164.274 829.358 164.043 829.358 163.504V160.226H831.107V159.434H829.358V157.784H828.434V159.434H827.323V160.226H828.434V163.57Z" fill="#6A6A6A"/>
<path d="M516.166 190H517.134V182.3H516.166V190ZM526.663 186.436C526.663 185.061 525.948 184.28 524.683 184.28C523.77 184.28 523.055 184.676 522.747 185.38V181.948H521.823V190H522.747V186.689C522.747 185.754 523.462 185.138 524.463 185.138C525.343 185.138 525.739 185.6 525.739 186.656V190H526.663V186.436ZM533.606 187.503C533.628 187.338 533.639 187.173 533.639 187.008C533.639 185.391 532.539 184.28 530.988 184.28C529.349 184.28 528.205 185.523 528.205 187.228C528.205 188.955 529.382 190.154 531.065 190.154C532.088 190.154 532.946 189.714 533.485 188.955L532.858 188.427C532.396 189.01 531.802 189.296 531.087 189.296C529.998 189.296 529.25 188.614 529.151 187.503H533.606ZM529.173 186.755C529.338 185.754 530.009 185.138 530.988 185.138C531.956 185.138 532.605 185.732 532.693 186.755H529.173ZM539.509 184.434V185.457C539.19 184.742 538.387 184.28 537.452 184.28C535.923 184.28 534.801 185.501 534.801 187.217C534.801 188.933 535.923 190.154 537.452 190.154C538.387 190.154 539.19 189.692 539.509 188.977V190H540.433V184.434H539.509ZM539.553 187.217C539.553 187.822 539.377 188.328 539.025 188.713C538.684 189.098 538.222 189.296 537.661 189.296C537.1 189.296 536.638 189.098 536.286 188.713C535.945 188.328 535.769 187.822 535.769 187.217C535.769 186.612 535.945 186.106 536.286 185.721C536.638 185.336 537.1 185.138 537.661 185.138C538.222 185.138 538.684 185.336 539.025 185.721C539.377 186.106 539.553 186.612 539.553 187.217ZM545.54 184.423C545.397 184.368 545.221 184.346 545.034 184.346C544.209 184.346 543.593 184.764 543.34 185.479V184.434H542.416V190H543.34V187.151C543.34 185.842 543.967 185.204 545.056 185.204C545.221 185.204 545.375 185.215 545.54 185.237V184.423ZM550.896 181.948V185.457C550.555 184.742 549.763 184.28 548.828 184.28C547.31 184.28 546.188 185.501 546.188 187.217C546.188 188.933 547.31 190.154 548.828 190.154C549.763 190.154 550.555 189.692 550.896 188.977V190H551.82V181.948H550.896ZM550.94 187.217C550.94 187.822 550.764 188.328 550.412 188.713C550.071 189.098 549.609 189.296 549.048 189.296C548.487 189.296 548.025 189.098 547.673 188.713C547.332 188.328 547.156 187.822 547.156 187.217C547.156 186.612 547.332 186.106 547.673 185.721C548.025 185.336 548.487 185.138 549.048 185.138C549.609 185.138 550.071 185.336 550.412 185.721C550.764 186.106 550.94 186.612 550.94 187.217ZM561.178 186.436C561.178 185.061 560.463 184.28 559.198 184.28C558.285 184.28 557.57 184.676 557.262 185.38V181.948H556.338V190H557.262V186.689C557.262 185.754 557.977 185.138 558.978 185.138C559.858 185.138 560.254 185.6 560.254 186.656V190H561.178V186.436ZM568.121 187.503C568.143 187.338 568.154 187.173 568.154 187.008C568.154 185.391 567.054 184.28 565.503 184.28C563.864 184.28 562.72 185.523 562.72 187.228C562.72 188.955 563.897 190.154 565.58 190.154C566.603 190.154 567.461 189.714 568 188.955L567.373 188.427C566.911 189.01 566.317 189.296 565.602 189.296C564.513 189.296 563.765 188.614 563.666 187.503H568.121ZM563.688 186.755C563.853 185.754 564.524 185.138 565.503 185.138C566.471 185.138 567.12 185.732 567.208 186.755H563.688ZM572.137 187.921C572.137 189.241 573.094 190.154 574.535 190.154C575.976 190.154 576.933 189.241 576.933 187.921V184.434H576.009V187.866C576.009 188.79 575.47 189.296 574.535 189.296C573.6 189.296 573.061 188.79 573.061 187.866V184.434H572.137V187.921ZM578.272 188.944C578.712 189.692 579.625 190.154 580.758 190.154C582.122 190.154 582.947 189.461 582.947 188.405C582.947 187.624 582.474 187.129 581.374 186.876L580.395 186.656C579.647 186.48 579.394 186.271 579.394 185.908C579.394 185.413 579.812 185.116 580.604 185.116C581.297 185.116 581.858 185.347 582.221 185.776L582.859 185.226C582.408 184.621 581.627 184.28 580.659 184.28C579.306 184.28 578.47 184.951 578.47 185.93C578.47 186.711 579.02 187.217 580.164 187.481L581.044 187.679C581.748 187.844 582.023 188.075 582.023 188.471C582.023 188.988 581.539 189.318 580.747 189.318C579.988 189.318 579.339 189.021 578.943 188.449L578.272 188.944ZM589.444 187.503C589.466 187.338 589.477 187.173 589.477 187.008C589.477 185.391 588.377 184.28 586.826 184.28C585.187 184.28 584.043 185.523 584.043 187.228C584.043 188.955 585.22 190.154 586.903 190.154C587.926 190.154 588.784 189.714 589.323 188.955L588.696 188.427C588.234 189.01 587.64 189.296 586.925 189.296C585.836 189.296 585.088 188.614 584.989 187.503H589.444ZM585.011 186.755C585.176 185.754 585.847 185.138 586.826 185.138C587.794 185.138 588.443 185.732 588.531 186.755H585.011ZM595.347 181.948V185.457C595.006 184.742 594.214 184.28 593.279 184.28C591.761 184.28 590.639 185.501 590.639 187.217C590.639 188.933 591.761 190.154 593.279 190.154C594.214 190.154 595.006 189.692 595.347 188.977V190H596.271V181.948H595.347ZM595.391 187.217C595.391 187.822 595.215 188.328 594.863 188.713C594.522 189.098 594.06 189.296 593.499 189.296C592.938 189.296 592.476 189.098 592.124 188.713C591.783 188.328 591.607 187.822 591.607 187.217C591.607 186.612 591.783 186.106 592.124 185.721C592.476 185.336 592.938 185.138 593.499 185.138C594.06 185.138 594.522 185.336 594.863 185.721C595.215 186.106 595.391 186.612 595.391 187.217ZM515.462 204.944C515.902 205.692 516.815 206.154 517.948 206.154C519.312 206.154 520.137 205.461 520.137 204.405C520.137 203.624 519.664 203.129 518.564 202.876L517.585 202.656C516.837 202.48 516.584 202.271 516.584 201.908C516.584 201.413 517.002 201.116 517.794 201.116C518.487 201.116 519.048 201.347 519.411 201.776L520.049 201.226C519.598 200.621 518.817 200.28 517.849 200.28C516.496 200.28 515.66 200.951 515.66 201.93C515.66 202.711 516.21 203.217 517.354 203.481L518.234 203.679C518.938 203.844 519.213 204.075 519.213 204.471C519.213 204.988 518.729 205.318 517.937 205.318C517.178 205.318 516.529 205.021 516.133 204.449L515.462 204.944ZM525.942 200.434V201.457C525.623 200.742 524.82 200.28 523.885 200.28C522.356 200.28 521.234 201.501 521.234 203.217C521.234 204.933 522.356 206.154 523.885 206.154C524.82 206.154 525.623 205.692 525.942 204.977V206H526.866V200.434H525.942ZM525.986 203.217C525.986 203.822 525.81 204.328 525.458 204.713C525.117 205.098 524.655 205.296 524.094 205.296C523.533 205.296 523.071 205.098 522.719 204.713C522.378 204.328 522.202 203.822 522.202 203.217C522.202 202.612 522.378 202.106 522.719 201.721C523.071 201.336 523.533 201.138 524.094 201.138C524.655 201.138 525.117 201.336 525.458 201.721C525.81 202.106 525.986 202.612 525.986 203.217ZM528.848 206H529.772V197.948H528.848V206ZM536.061 200.434V201.457C535.742 200.742 534.939 200.28 534.004 200.28C532.475 200.28 531.353 201.501 531.353 203.217C531.353 204.933 532.475 206.154 534.004 206.154C534.939 206.154 535.742 205.692 536.061 204.977V206H536.985V200.434H536.061ZM536.105 203.217C536.105 203.822 535.929 204.328 535.577 204.713C535.236 205.098 534.774 205.296 534.213 205.296C533.652 205.296 533.19 205.098 532.838 204.713C532.497 204.328 532.321 203.822 532.321 203.217C532.321 202.612 532.497 202.106 532.838 201.721C533.19 201.336 533.652 201.138 534.213 201.138C534.774 201.138 535.236 201.336 535.577 201.721C535.929 202.106 536.105 202.612 536.105 203.217ZM542.092 200.423C541.949 200.368 541.773 200.346 541.586 200.346C540.761 200.346 540.145 200.764 539.892 201.479V200.434H538.968V206H539.892V203.151C539.892 201.842 540.519 201.204 541.608 201.204C541.773 201.204 541.927 201.215 542.092 201.237V200.423ZM547.21 200.434V203.591C547.21 204.515 546.484 205.142 545.472 205.142C544.603 205.142 544.196 204.68 544.196 203.624V200.434H543.272V203.844C543.272 205.241 544.009 206 545.252 206C546.165 206 546.891 205.604 547.21 204.9V205.461C547.21 206.814 546.55 207.496 545.395 207.496C544.735 207.496 544.097 207.265 543.646 206.858L543.107 207.518C543.624 208.046 544.482 208.354 545.417 208.354C547.133 208.354 548.134 207.342 548.134 205.461V200.434H547.21ZM555.75 203.217C555.75 201.501 554.628 200.28 553.11 200.28C552.175 200.28 551.383 200.742 551.042 201.457V200.434H550.118V208.2H551.042V204.977C551.383 205.692 552.175 206.154 553.11 206.154C554.628 206.154 555.75 204.933 555.75 203.217ZM554.782 203.217C554.782 203.822 554.606 204.328 554.254 204.713C553.913 205.098 553.451 205.296 552.89 205.296C552.329 205.296 551.867 205.098 551.515 204.713C551.174 204.328 550.998 203.822 550.998 203.217C550.998 202.612 551.174 202.106 551.515 201.721C551.867 201.336 552.329 201.138 552.89 201.138C553.451 201.138 553.913 201.336 554.254 201.721C554.606 202.106 554.782 202.612 554.782 203.217ZM561.649 200.434V201.457C561.33 200.742 560.527 200.28 559.592 200.28C558.063 200.28 556.941 201.501 556.941 203.217C556.941 204.933 558.063 206.154 559.592 206.154C560.527 206.154 561.33 205.692 561.649 204.977V206H562.573V200.434H561.649ZM561.693 203.217C561.693 203.822 561.517 204.328 561.165 204.713C560.824 205.098 560.362 205.296 559.801 205.296C559.24 205.296 558.778 205.098 558.426 204.713C558.085 204.328 557.909 203.822 557.909 203.217C557.909 202.612 558.085 202.106 558.426 201.721C558.778 201.336 559.24 201.138 559.801 201.138C560.362 201.138 560.824 201.336 561.165 201.721C561.517 202.106 561.693 202.612 561.693 203.217ZM568.35 200.434V203.591C568.35 204.515 567.624 205.142 566.612 205.142C565.743 205.142 565.336 204.68 565.336 203.624V200.434H564.412V203.844C564.412 205.241 565.149 206 566.392 206C567.305 206 568.031 205.604 568.35 204.9V205.461C568.35 206.814 567.69 207.496 566.535 207.496C565.875 207.496 565.237 207.265 564.786 206.858L564.247 207.518C564.764 208.046 565.622 208.354 566.557 208.354C568.273 208.354 569.274 207.342 569.274 205.461V200.434H568.35ZM575.571 197.948V201.457C575.23 200.742 574.438 200.28 573.503 200.28C571.985 200.28 570.863 201.501 570.863 203.217C570.863 204.933 571.985 206.154 573.503 206.154C574.438 206.154 575.23 205.692 575.571 204.977V206H576.495V197.948H575.571ZM575.615 203.217C575.615 203.822 575.439 204.328 575.087 204.713C574.746 205.098 574.284 205.296 573.723 205.296C573.162 205.296 572.7 205.098 572.348 204.713C572.007 204.328 571.831 203.822 571.831 203.217C571.831 202.612 572.007 202.106 572.348 201.721C572.7 201.336 573.162 201.138 573.723 201.138C574.284 201.138 574.746 201.336 575.087 201.721C575.439 202.106 575.615 202.612 575.615 203.217ZM582.789 200.434V201.457C582.47 200.742 581.667 200.28 580.732 200.28C579.203 200.28 578.081 201.501 578.081 203.217C578.081 204.933 579.203 206.154 580.732 206.154C581.667 206.154 582.47 205.692 582.789 204.977V206H583.713V200.434H582.789ZM582.833 203.217C582.833 203.822 582.657 204.328 582.305 204.713C581.964 205.098 581.502 205.296 580.941 205.296C580.38 205.296 579.918 205.098 579.566 204.713C579.225 204.328 579.049 203.822 579.049 203.217C579.049 202.612 579.225 202.106 579.566 201.721C579.918 201.336 580.38 201.138 580.941 201.138C581.502 201.138 581.964 201.336 582.305 201.721C582.657 202.106 582.833 202.612 582.833 203.217ZM589.491 200.434V203.591C589.491 204.515 588.765 205.142 587.753 205.142C586.884 205.142 586.477 204.68 586.477 203.624V200.434H585.553V203.844C585.553 205.241 586.29 206 587.533 206C588.446 206 589.172 205.604 589.491 204.9V205.461C589.491 206.814 588.831 207.496 587.676 207.496C587.016 207.496 586.378 207.265 585.927 206.858L585.388 207.518C585.905 208.046 586.763 208.354 587.698 208.354C589.414 208.354 590.415 207.342 590.415 205.461V200.434H589.491ZM592.124 205.417C592.124 205.813 592.388 206.088 592.784 206.088C593.18 206.088 593.444 205.813 593.444 205.417C593.444 205.032 593.18 204.768 592.784 204.768C592.388 204.768 592.124 205.032 592.124 205.417ZM594.474 203.217C594.474 204.911 595.64 206.154 597.334 206.154C598.357 206.154 599.193 205.725 599.666 204.944L598.94 204.438C598.599 204.999 598.038 205.296 597.345 205.296C596.784 205.296 596.322 205.109 595.97 204.724C595.618 204.339 595.442 203.844 595.442 203.217C595.442 202.59 595.618 202.095 595.97 201.71C596.322 201.325 596.784 201.138 597.345 201.138C598.038 201.138 598.599 201.435 598.94 201.996L599.666 201.49C599.193 200.709 598.357 200.28 597.334 200.28C595.64 200.28 594.474 201.523 594.474 203.217ZM600.629 203.217C600.607 204.79 601.806 206.187 603.489 206.154C605.172 206.187 606.371 204.79 606.349 203.217C606.371 201.644 605.172 200.247 603.489 200.28C601.806 200.247 600.607 201.644 600.629 203.217ZM605.381 203.217C605.381 203.822 605.205 204.328 604.853 204.713C604.512 205.098 604.05 205.296 603.489 205.296C602.928 205.296 602.466 205.098 602.114 204.713C601.773 204.328 601.597 203.822 601.597 203.217C601.597 202.612 601.773 202.106 602.114 201.721C602.466 201.336 602.928 201.138 603.489 201.138C604.05 201.138 604.512 201.336 604.853 201.721C605.205 202.106 605.381 202.612 605.381 203.217ZM616.292 202.414C616.292 201.05 615.621 200.28 614.389 200.28C613.454 200.28 612.717 200.731 612.42 201.435C612.156 200.687 611.54 200.28 610.693 200.28C609.846 200.28 609.164 200.676 608.856 201.369V200.434H607.932V206H608.856V202.689C608.856 201.754 609.516 201.138 610.473 201.138C611.298 201.138 611.65 201.589 611.65 202.634V206H612.574V202.689C612.574 201.754 613.234 201.138 614.191 201.138C615.016 201.138 615.368 201.589 615.368 202.634V206H616.292V202.414Z" fill="white"/>
<g clip-path="url(#clip1_56_1717)">
<path d="M635.471 387.778C635.471 387.778 634.876 384.851 641.635 375.849C643.093 373.908 647.541 366.594 647.541 366.594C649.3 366.159 654.773 369.066 656.218 369.951L656.676 370.236C656.676 370.236 659.018 380.353 654.04 379.206C653.885 379.169 653.73 379.14 653.575 379.114C648.761 378.369 644.114 383.125 642.008 386.147C640.629 388.11 636.386 387.869 635.471 387.778Z" fill="#233862"/>
<path d="M671.151 368.116C671.151 368.116 670.555 365.192 677.316 356.19C678.774 354.246 683.222 346.933 683.222 346.933C684.979 346.498 690.455 349.407 691.897 350.289C692.188 350.468 692.356 350.576 692.356 350.576C692.356 350.576 694.697 360.692 689.721 359.544C689.564 359.507 689.409 359.479 689.254 359.455C684.453 358.707 679.795 363.466 677.687 366.486C676.308 368.449 672.065 368.196 671.151 368.116Z" fill="#233862"/>
<path d="M747.306 318.038C745.922 312.121 730.547 293.668 722.67 297.942C714.794 302.216 718.884 325.426 727.09 352.798C727.216 353.218 727.343 353.631 727.474 354.044C710.926 351.337 691.232 350.518 691.232 350.518L689.158 360.042C704.069 364.146 733.026 378.41 745.185 384.551C749.829 386.649 755.285 386.649 756.396 382.58C760.115 368.955 747.306 318.038 747.306 318.038Z" fill="#ED7D2B"/>
<path d="M717.945 403.304C717.945 403.304 682.748 387.484 661.288 381.09C658.628 380.301 656.185 379.658 654.042 379.201L656.299 370.033C656.299 370.033 658.403 369.996 661.814 370.001C675.177 370.038 708.637 370.783 714.617 377.316C722.118 385.525 717.945 403.304 717.945 403.304Z" fill="#FFB27D"/>
<path d="M744.541 186.452C745.698 189.104 746.621 192.58 745.837 194.413C744.951 196.491 745.196 197.995 745.196 197.995L743.304 198.456L741.042 199.004C741.042 199.004 740.922 198.813 740.741 198.482C740.56 198.152 740.32 197.689 740.087 197.148C740.039 196.838 739.917 196.544 739.731 196.291C739.545 196.038 739.3 195.834 739.017 195.695C738.055 195.243 737.053 194.084 736.859 192.965C736.664 191.845 735.521 189.758 735.848 189.539C736.64 189.006 737.828 192.256 738.526 192.4C739.159 192.532 739.36 192.087 739.399 192V191.982C740.49 189.326 738.469 182.634 740.076 182.251C740.669 182.115 744.05 185.323 744.541 186.452Z" fill="#FFB27D"/>
<path d="M622.745 239.96C624.71 242.084 627.532 244.332 629.531 244.36C631.798 244.39 633.082 245.23 633.082 245.23L634.269 243.693L635.685 241.853C635.685 241.853 635.557 241.666 635.327 241.369C635.098 241.071 633.496 239.727 633.468 238.666C633.44 237.605 632.787 236.216 631.835 235.594C630.884 234.973 629.435 233.081 629.096 233.29C628.287 233.794 630.79 236.192 630.642 236.886C630.506 237.514 630.015 237.518 629.921 237.514H629.904C627.021 237.44 621.687 232.886 620.696 234.199C620.327 234.679 621.907 239.055 622.745 239.96Z" fill="#FFB27D"/>
<path d="M707.899 322.456C699.217 324.699 701.395 335.098 702.692 363.638C702.84 366.866 703.141 369.986 703.565 372.96C690.841 370.414 671.279 370.031 661.81 370.005C661.81 370.005 660.238 373.484 660.306 376.275C660.45 382.203 663.49 386.123 663.49 386.123C684.95 392.517 717.941 403.298 717.941 403.298V403.271C720.141 403.841 722.212 402.745 723.858 399.606C730.42 387.086 741.649 303.775 741.649 303.775C741.758 297.709 716.579 320.215 707.899 322.456Z" fill="#F99746"/>
<path d="M693.726 258.5C693.726 258.5 696.782 250.793 690.845 239.803L699.283 241.671L705.016 242.938C705.845 244.752 706.574 246.61 707.199 248.504C707.526 249.456 708.726 253.275 709.093 254.456C711.107 254.541 708.203 257.582 704.073 258.18C699.46 258.841 693.726 258.5 693.726 258.5Z" fill="#FFB27D"/>
<path d="M705.016 242.932C705.845 244.746 706.574 246.604 707.199 248.497C702.275 249.962 693.491 245.193 693.491 245.193C695.472 243.388 697.436 242.269 699.278 241.664L705.016 242.932Z" fill="#ED975D"/>
<path d="M708.805 240.058C708.805 240.058 699.03 250.828 692.391 244.66C685.751 238.492 680.018 235.729 685.978 228.592C691.939 221.455 695.706 222.492 698.419 224.014C701.131 225.535 711.177 237.097 708.805 240.058Z" fill="#FFB27D"/>
<path d="M691.843 243.993C691.843 243.993 692.845 242.886 691.406 241.449C689.968 240.012 688.307 237.936 689.909 237.299C691.511 236.662 692.397 237.642 692.45 236.618C692.502 235.594 690.485 233.049 694.196 229.827C697.906 226.605 700.536 226.703 701.701 224.503C702.867 222.303 700.808 219.527 700.808 219.527C700.808 219.527 701.068 220.894 700.542 221.809C700.542 221.809 700.287 215.376 694.604 215.32C688.92 215.263 686.849 219.885 684.944 221.585C680.745 225.338 678.106 227.855 678.966 231.881C679.826 235.908 686.801 243.451 691.843 243.993Z" fill="#2B478B"/>
<path d="M702.696 237.814L706.324 234.414C706.324 234.414 707.799 236.668 706.76 237.647C705.721 238.625 702.696 237.814 702.696 237.814Z" fill="white"/>
<path d="M751.383 217.444C749.833 207.878 745.165 197.378 745.165 197.378L740.08 197.148C740.08 197.148 740.645 210.096 740.516 219.15C740.458 223.498 738.552 227.436 738.028 228.131C736.45 230.236 713.198 252.528 712.421 253.236L712.402 253.256C709.927 253.675 710.202 257.723 707.659 258.404C703.421 259.534 696.382 257.473 692.615 258.863C692.615 258.863 662.425 258.897 657.831 256.706C653.237 254.515 635.321 241.358 635.321 241.358L632.021 245.21C632.021 245.21 644.317 268.789 654.064 273.037C659.37 275.348 671.024 278.126 680.544 280.181C682.392 280.582 684.099 281.466 685.491 282.741C686.883 284.016 687.91 285.637 688.466 287.437C697.415 316.206 692.914 340.465 692.914 340.465C692.914 340.465 701.498 341.422 712.183 338.465C726.077 334.621 736.226 328.395 736.226 328.395C740.141 323.667 737.828 306.329 737.828 306.329C737.828 306.329 740.53 309.236 741.435 314.095C742.09 317.593 742.439 319.53 742.655 320.758C742.702 321.023 742.816 321.272 742.986 321.481C743.157 321.69 743.378 321.852 743.629 321.952C743.88 322.052 744.152 322.087 744.42 322.052C744.689 322.018 744.943 321.916 745.161 321.756C747.169 320.275 750.034 317.969 750.929 316.277C754.057 310.364 747.101 286.276 737.494 269.48C736.65 268.008 736.221 266.335 736.253 264.64C736.284 262.945 736.776 261.289 737.675 259.85C743.585 250.406 752.671 235.429 752.782 232.423C752.834 230.788 752.276 222.94 751.383 217.444Z" fill="#2B478B"/>
<path d="M707.002 260.576C707.002 260.576 715.108 272.033 709.165 283.102C703.222 294.172 679.872 292.646 675.555 306.475L678.174 315.086L687.938 309.823C687.938 309.823 688.755 302.344 698.357 299.096C717.114 292.755 721.629 281.798 717.692 271.996C714.366 263.711 709.549 259.719 709.549 259.719L707.002 260.576Z" fill="#F99746"/>
<path d="M694.481 254.273L703.881 257.367L704.344 259.141L692.622 258.865C692.622 258.865 693.244 256.18 694.481 254.273Z" fill="#F99746"/>
<path d="M708.233 251.699L708.547 256.541C708.547 256.541 709.778 257.543 709.763 257.41C709.748 257.278 712.406 253.258 712.406 253.258C711.061 252.625 709.665 252.103 708.233 251.699Z" fill="#F99746"/>
<path d="M703.881 257.367L708.683 255.754C708.786 255.719 708.895 255.708 709.003 255.72C709.111 255.733 709.215 255.77 709.307 255.827C709.399 255.885 709.477 255.962 709.535 256.054C709.593 256.145 709.63 256.249 709.643 256.356L710.038 259.565C710.058 259.731 710.02 259.899 709.931 260.042C709.842 260.184 709.706 260.291 709.547 260.345L707.437 261.056C707.324 261.094 707.203 261.104 707.086 261.085C706.968 261.066 706.857 261.019 706.762 260.947L703.685 258.639C703.578 258.56 703.496 258.453 703.445 258.331C703.395 258.208 703.379 258.075 703.399 257.944C703.419 257.813 703.475 257.69 703.56 257.589C703.645 257.487 703.756 257.41 703.881 257.367Z" fill="#ED7D2B"/>
<path d="M739.835 196.471L739.412 200.491C739.412 200.491 744.506 200.569 744.506 200.491C744.506 200.413 744.661 198.498 744.661 198.498L745.51 200.722L747.4 200.106L745.235 196.471C745.235 196.471 743.083 197.487 739.835 196.471Z" fill="#233862"/>
<path d="M635.327 241.358L632.01 245.208L632.983 248.967L634.334 248.043L633.669 245.219L635.993 247.121L639.003 243.16L635.327 241.358Z" fill="#233862"/>
<path d="M634.605 244.893C634.605 244.832 634.623 244.773 634.657 244.722C634.691 244.672 634.739 244.633 634.795 244.609C634.851 244.586 634.913 244.58 634.973 244.592C635.032 244.604 635.087 244.633 635.13 244.676C635.173 244.719 635.203 244.773 635.215 244.833C635.226 244.892 635.22 244.954 635.197 245.01C635.174 245.066 635.134 245.114 635.084 245.147C635.033 245.181 634.974 245.199 634.913 245.199C634.831 245.199 634.753 245.166 634.696 245.109C634.638 245.051 634.606 244.974 634.605 244.893Z" fill="#EBF3FA"/>
<path d="M743.572 199.004C743.572 198.956 743.586 198.909 743.613 198.869C743.64 198.829 743.678 198.797 743.723 198.779C743.768 198.761 743.817 198.756 743.865 198.766C743.912 198.775 743.956 198.799 743.99 198.833C744.024 198.867 744.047 198.911 744.056 198.958C744.065 199.005 744.06 199.054 744.041 199.099C744.023 199.143 743.991 199.181 743.95 199.208C743.91 199.234 743.862 199.248 743.814 199.248C743.75 199.247 743.688 199.221 743.643 199.176C743.597 199.13 743.572 199.068 743.572 199.004Z" fill="#EBF3FA"/>
<path d="M735.562 292.598C735.562 292.469 735.601 292.343 735.673 292.236C735.745 292.129 735.847 292.045 735.966 291.996C736.086 291.947 736.218 291.934 736.345 291.959C736.472 291.984 736.588 292.046 736.68 292.137C736.772 292.228 736.834 292.345 736.859 292.471C736.884 292.598 736.871 292.729 736.822 292.848C736.772 292.967 736.688 293.069 736.581 293.141C736.473 293.212 736.346 293.251 736.217 293.251C736.043 293.251 735.877 293.182 735.754 293.06C735.631 292.937 735.562 292.771 735.562 292.598Z" fill="#EBF3FA"/>
<path d="M730.35 281.779C730.35 281.65 730.389 281.523 730.461 281.416C730.533 281.309 730.635 281.225 730.755 281.176C730.874 281.127 731.006 281.114 731.133 281.139C731.26 281.164 731.377 281.226 731.468 281.317C731.56 281.409 731.622 281.525 731.647 281.651C731.673 281.778 731.66 281.909 731.61 282.028C731.561 282.147 731.477 282.249 731.369 282.321C731.261 282.392 731.135 282.431 731.005 282.431C730.832 282.431 730.665 282.362 730.542 282.24C730.419 282.117 730.35 281.952 730.35 281.779Z" fill="#EBF3FA"/>
<path d="M723.172 273.604C723.172 273.475 723.211 273.349 723.283 273.242C723.355 273.135 723.457 273.051 723.576 273.002C723.696 272.952 723.828 272.94 723.955 272.965C724.082 272.99 724.198 273.052 724.29 273.143C724.382 273.234 724.444 273.351 724.469 273.477C724.494 273.604 724.481 273.735 724.432 273.854C724.382 273.973 724.298 274.075 724.191 274.147C724.083 274.218 723.956 274.257 723.827 274.257C723.653 274.257 723.487 274.188 723.364 274.066C723.241 273.943 723.172 273.777 723.172 273.604Z" fill="#EBF3FA"/>
</g>
<g clip-path="url(#clip2_56_1717)">
<path d="M777.249 333.755C777.319 333.607 777.408 333.468 777.513 333.341C777.591 333.249 777.676 333.163 777.769 333.086L778.155 332.699L778.257 332.771C780.23 331.814 784.307 332.829 788.428 335.499C793.41 338.727 796.61 343.171 795.687 345.532L795.827 345.635L795.274 346.183L795.192 346.265L795.177 346.28C795.032 346.41 794.87 346.521 794.697 346.61C792.749 347.623 788.63 346.61 784.462 343.916C779.389 340.631 776.153 336.08 777.249 333.755Z" fill="#FFA412"/>
<path d="M789.02 334.909C783.945 331.622 778.94 330.843 777.842 333.168C776.743 335.492 779.97 340.043 785.046 343.33C790.121 346.617 795.128 347.399 796.224 345.071C797.32 342.744 794.098 338.196 789.02 334.909Z" fill="#FFB93E"/>
<path d="M785.328 342.674C783.204 341.294 781.373 339.629 780.172 337.989C778.945 336.311 778.521 334.841 778.978 333.85C779.105 333.592 779.288 333.365 779.514 333.187C779.74 333.008 780.004 332.882 780.285 332.818C782.158 332.283 785.476 333.306 788.739 335.426C790.865 336.807 792.695 338.469 793.894 340.109C795.121 341.789 795.545 343.26 795.088 344.248C794.962 344.507 794.78 344.734 794.554 344.913C794.328 345.092 794.065 345.218 793.783 345.283C793.421 345.38 793.048 345.426 792.673 345.421C790.74 345.419 788.015 344.418 785.328 342.674ZM780.387 333.172C780.158 333.223 779.943 333.324 779.758 333.468C779.573 333.612 779.422 333.795 779.318 334.004C778.925 334.856 779.347 336.228 780.474 337.773C781.648 339.378 783.443 341.01 785.532 342.366C788.133 344.054 790.838 345.052 792.678 345.052C793.016 345.057 793.353 345.015 793.679 344.926C793.908 344.876 794.124 344.775 794.309 344.631C794.495 344.488 794.645 344.305 794.751 344.096C795.143 343.244 794.722 341.87 793.592 340.327C792.42 338.722 790.623 337.091 788.537 335.735C785.933 334.044 783.23 333.049 781.391 333.049C781.052 333.043 780.715 333.083 780.387 333.17V333.172Z" fill="#FFA412"/>
<path d="M820.845 309.265C820.795 309.156 820.73 309.055 820.652 308.964C820.595 308.896 820.533 308.833 820.465 308.776L820.183 308.495L820.11 308.547C818.668 307.847 815.689 308.589 812.676 310.529C809.036 312.889 806.699 316.134 807.372 317.86L807.269 317.935L807.676 318.336C807.694 318.356 807.713 318.376 807.733 318.395H807.747C807.852 318.491 807.97 318.572 808.097 318.637C809.522 319.377 812.536 318.637 815.576 316.667C819.291 314.289 821.646 310.971 820.845 309.265Z" fill="#FFA412"/>
<path d="M812.234 310.108C815.945 307.706 819.6 307.136 820.403 308.836C821.206 310.535 818.85 313.86 815.139 316.262C811.428 318.664 807.773 319.234 806.972 317.534C806.171 315.835 808.534 312.512 812.234 310.108Z" fill="#FFB93E"/>
<path d="M809.571 317.796C809.295 317.8 809.02 317.765 808.754 317.693C808.549 317.646 808.356 317.554 808.192 317.424C808.027 317.293 807.894 317.128 807.802 316.94C807.467 316.216 807.778 315.141 808.674 313.915C809.719 312.562 810.996 311.403 812.447 310.491C814.83 308.95 817.256 308.195 818.625 308.585C818.831 308.632 819.023 308.725 819.188 308.856C819.354 308.986 819.487 309.152 819.58 309.34C819.913 310.064 819.604 311.139 818.707 312.365C817.662 313.717 816.385 314.876 814.935 315.788C812.977 317.057 810.987 317.796 809.571 317.796ZM817.811 308.754C816.466 308.754 814.482 309.481 812.589 310.716C811.173 311.611 809.926 312.745 808.905 314.067C808.079 315.194 807.771 316.198 808.059 316.819C808.136 316.972 808.245 317.106 808.38 317.211C808.516 317.317 808.673 317.391 808.841 317.429C809.08 317.491 809.326 317.522 809.573 317.519C810.918 317.519 812.902 316.79 814.795 315.555C816.216 314.661 817.467 313.525 818.49 312.2C819.316 311.07 819.624 310.069 819.336 309.446C819.259 309.293 819.149 309.159 819.014 309.054C818.879 308.949 818.722 308.875 818.554 308.838C818.315 308.774 818.068 308.744 817.82 308.748L817.811 308.754Z" fill="#FFA412"/>
<path d="M610.125 313.86C610.066 313.735 609.992 313.618 609.903 313.512C609.836 313.432 609.762 313.359 609.681 313.292L609.357 312.966L609.271 313.03C607.613 312.224 604.189 313.078 600.724 315.322C596.537 318.034 593.845 321.768 594.624 323.751L594.506 323.84L594.97 324.3L595.039 324.368L595.052 324.381C595.173 324.491 595.309 324.585 595.456 324.659C597.094 325.508 600.56 324.659 604.058 322.393C608.339 319.637 611.048 315.815 610.125 313.86Z" fill="#FFA412"/>
<path d="M600.234 314.829C604.51 312.072 608.705 311.412 609.628 313.364C610.551 315.317 607.839 319.144 603.574 321.907C599.308 324.67 595.103 325.323 594.18 323.371C593.257 321.418 595.968 317.591 600.234 314.829Z" fill="#FFB93E"/>
<path d="M597.171 323.663C596.854 323.667 596.538 323.627 596.233 323.545C595.996 323.49 595.775 323.385 595.585 323.234C595.395 323.084 595.242 322.894 595.136 322.677C594.75 321.845 595.107 320.61 596.139 319.199C597.171 317.787 598.685 316.422 600.471 315.262C603.212 313.481 606.002 312.62 607.573 313.061C607.812 313.113 608.035 313.219 608.227 313.369C608.42 313.519 608.575 313.71 608.683 313.928C609.067 314.76 608.712 315.995 607.68 317.407C606.648 318.818 605.132 320.185 603.348 321.343C601.079 322.82 598.789 323.663 597.171 323.663ZM606.648 313.263C605.094 313.263 602.828 314.1 600.642 315.522C598.887 316.66 597.378 318.032 596.392 319.381C595.445 320.678 595.09 321.832 595.42 322.547C595.507 322.722 595.632 322.875 595.785 322.996C595.939 323.117 596.117 323.203 596.308 323.247C596.583 323.32 596.867 323.355 597.151 323.351C598.705 323.351 600.969 322.514 603.157 321.092C604.91 319.954 606.419 318.582 607.407 317.235C608.354 315.936 608.709 314.782 608.379 314.067C608.29 313.891 608.163 313.738 608.007 313.617C607.852 313.496 607.671 313.412 607.478 313.369C607.207 313.295 606.928 313.259 606.648 313.263Z" fill="#FFA412"/>
<path d="M605.724 276.204C605.768 276.111 605.823 276.024 605.889 275.944C605.938 275.887 605.991 275.833 606.048 275.784L606.29 275.542L606.352 275.588C607.586 274.989 610.125 275.625 612.711 277.294C615.818 279.311 617.815 282.087 617.249 283.564L617.336 283.628L616.989 283.971L616.938 284.022C616.848 284.104 616.747 284.173 616.639 284.229C615.42 284.863 612.846 284.229 610.241 282.545C607.054 280.502 605.039 277.657 605.724 276.204Z" fill="#FFA412"/>
<path d="M613.081 276.926C609.91 274.87 606.781 274.384 606.095 275.826C605.409 277.268 607.427 280.123 610.598 282.177C613.769 284.231 616.898 284.72 617.584 283.278C618.27 281.836 616.255 278.98 613.081 276.926Z" fill="#FFB93E"/>
<path d="M610.773 281.776C609.534 280.996 608.443 280.005 607.551 278.848C606.783 277.8 606.519 276.88 606.805 276.262C606.884 276.1 606.998 275.959 607.14 275.847C607.281 275.735 607.446 275.656 607.622 275.616C608.791 275.282 610.866 275.922 612.906 277.248C614.145 278.028 615.235 279.019 616.128 280.174C616.894 281.224 617.16 282.144 616.874 282.763C616.795 282.924 616.681 283.066 616.54 283.177C616.398 283.289 616.233 283.368 616.057 283.408C615.83 283.469 615.596 283.499 615.36 283.496C614.158 283.496 612.453 282.868 610.773 281.776ZM607.686 275.832C607.543 275.864 607.41 275.928 607.294 276.018C607.179 276.107 607.086 276.222 607.02 276.352C606.774 276.885 607.038 277.743 607.744 278.707C608.62 279.838 609.69 280.807 610.904 281.569C612.531 282.626 614.233 283.249 615.372 283.247C615.583 283.251 615.794 283.225 615.997 283.17C616.14 283.138 616.274 283.075 616.389 282.985C616.504 282.895 616.598 282.781 616.663 282.65C616.907 282.118 616.645 281.259 615.94 280.295C615.063 279.164 613.993 278.195 612.777 277.433C611.153 276.376 609.462 275.753 608.312 275.753C608.1 275.752 607.89 275.781 607.686 275.839V275.832Z" fill="#FFA412"/>
</g>
<g clip-path="url(#clip3_56_1717)">
<path d="M596.747 322.39C596.747 322.39 605.817 335.228 614.134 335.406C622.45 335.584 635.101 329.455 635.101 329.455C635.101 329.455 642.736 312.345 637.557 305.65C637.557 305.65 632.363 303.36 626.934 307.408C625.892 308.19 624.948 309.095 624.121 310.105C622.996 311.513 621.474 312.547 619.755 313.071C613.823 314.886 606.78 310.617 604.146 314.737C602.855 316.747 601.313 318.582 599.558 320.198C598.684 321.007 597.744 321.74 596.747 322.39Z" fill="#FFEDDC"/>
<path d="M715.003 415C715.003 415 682.941 336.889 625.231 335.401C625.231 335.401 571.961 341.352 569 415H715.003Z" fill="#FFEDDC"/>
<path d="M641.041 337.787C641.041 337.787 617.91 342.959 610.773 339.92C610.773 339.92 609.701 330.194 619.436 331.561C626.103 332.494 630.432 329.272 633.001 327.966C636.616 326.114 642.001 333.715 641.041 337.787Z" fill="#DB6A1D"/>
<path d="M620.911 323.129C622.391 324.243 626.934 307.403 626.934 307.403C625.893 308.185 624.948 309.09 624.121 310.099C622.996 311.508 621.474 312.542 619.755 313.065C619.742 313.575 619.476 322.042 620.911 323.129Z" fill="#E5C1A1"/>
<path d="M599.558 320.211C599.885 320.405 610.583 326.847 612.031 326.847C613.479 326.847 604.146 314.751 604.146 314.751C602.855 316.76 601.313 318.595 599.558 320.211Z" fill="#E5C1A1"/>
<path d="M683.681 393.18C684.273 392.67 660.992 358.712 654.579 358.464C648.167 358.216 633.76 365.901 623.33 366.894C612.9 367.886 602.789 364.909 600.815 371.108C598.842 377.308 593.416 399.287 596.747 402.804C600.078 406.32 670.88 404.176 683.681 393.18Z" fill="#F9DDBF"/>
</g>
</g>
<defs>
<clipPath id="clip0_56_1717">
<rect width="1440" height="417" fill="white"/>
</clipPath>
<clipPath id="clip1_56_1717">
<rect width="136.431" height="221.179" fill="white" transform="translate(620.641 182.247)"/>
</clipPath>
<clipPath id="clip2_56_1717">
<rect width="227" height="72" fill="white" transform="translate(594 275)"/>
</clipPath>
<clipPath id="clip3_56_1717">
<rect width="146" height="110" fill="white" transform="translate(569 305)"/>
</clipPath>
</defs>
</svg>
