<svg width="25" height="24" viewBox="0 0 25 24" fill="none" xmlns="http://www.w3.org/2000/svg">
<path d="M6.68185 12.2128C6.68185 11.5641 6.78958 10.9423 6.98185 10.359L3.6164 7.78905C2.96049 9.12079 2.59094 10.6214 2.59094 12.2128C2.59094 13.8028 2.96003 15.3025 3.61503 16.6333L6.97867 14.0583C6.78822 13.4778 6.68185 12.8582 6.68185 12.2128Z" fill="#FBBC05"/>
<path d="M12.591 6.31206C14.0001 6.31206 15.2728 6.81135 16.2728 7.62837L19.1819 4.72341C17.4092 3.18014 15.1365 2.22695 12.591 2.22695C8.63918 2.22695 5.24282 4.48692 3.61646 7.78905L6.98191 10.359C7.75736 8.00511 9.96782 6.31206 12.591 6.31206Z" fill="#EB4335"/>
<path d="M12.591 18.1135C9.96782 18.1135 7.75736 16.4204 6.98191 14.0665L3.61646 16.636C5.24282 19.9386 8.63918 22.1986 12.591 22.1986C15.0301 22.1986 17.3587 21.3325 19.1065 19.7098L15.9119 17.2402C15.0105 17.808 13.8755 18.1135 12.591 18.1135Z" fill="#34A853"/>
<path d="M22.1364 12.2128C22.1364 11.6227 22.0455 10.9872 21.9091 10.3972H12.5909V14.2553H17.9546C17.6864 15.5707 16.9564 16.582 15.9119 17.2402L19.1064 19.7098C20.9423 18.0059 22.1364 15.4677 22.1364 12.2128Z" fill="#4285F4"/>
</svg>
