<svg width="72" height="72" viewBox="0 0 72 72" fill="none" xmlns="http://www.w3.org/2000/svg">
<g clip-path="url(#clip0_111_3509)">
<path d="M36 72C55.8823 72 72 55.8823 72 36C72 16.1177 55.8823 0 36 0C16.1177 0 0 16.1177 0 36C0 55.8823 16.1177 72 36 72Z" fill="#FC8900"/>
<path d="M71.9335 38.206L61.1719 27.4444L47.1776 28.7692L31.5994 33.0637L14.0844 25.7377L11.6322 45.3368L38.2276 71.9322C56.3428 70.8262 70.8383 56.324 71.9335 38.206Z" fill="#E67500"/>
<path d="M52.0855 23.5131C45.2256 23.5131 39.1329 28.5591 36 31.7445C32.9542 28.5366 27.0865 23.5131 19.9145 23.5131C13.0292 23.5131 7.42755 29.1147 7.42755 36C7.42755 42.8853 13.0291 48.4869 19.9145 48.4869C26.7745 48.4869 32.8672 43.4409 36 40.2555C39.0458 43.4634 44.9137 48.4869 52.0855 48.4869C58.9708 48.4869 64.5725 42.8853 64.5725 36C64.5725 29.1147 58.9708 23.5131 52.0855 23.5131ZM19.9145 42.8619C16.1308 42.8619 13.0526 39.7837 13.0526 36C13.0526 32.2163 16.1308 29.1381 19.9145 29.1381C23.6821 29.1381 27.1683 31.3692 29.4296 33.2408C30.5943 34.2048 31.5679 35.18 32.2922 35.9685C29.6097 38.7845 24.6865 42.8619 19.9145 42.8619ZM52.0855 42.8619C48.3179 42.8619 44.8317 40.6308 42.5704 38.7592C41.4058 37.7952 40.4321 36.82 39.7079 36.0315C42.3904 33.2156 47.3136 29.1382 52.0855 29.1382C55.8692 29.1382 58.9475 32.2165 58.9475 36.0001C58.9475 39.7838 55.8692 42.8619 52.0855 42.8619Z" fill="#4379D1"/>
<path d="M52.0855 23.5131C45.2255 23.5131 39.1328 28.5591 36 31.7445C35.9901 31.7343 36.0098 31.755 36 31.7445V40.2555C39.0638 43.4658 44.9624 48.4869 52.0855 48.4869C58.9708 48.4869 64.5724 42.8853 64.5724 36C64.5724 29.1147 58.9708 23.5131 52.0855 23.5131ZM52.0855 42.8619C48.3179 42.8619 44.8316 40.6308 42.5704 38.7592C41.4057 37.7952 40.4321 36.82 39.7078 36.0315C42.3904 33.2156 47.3135 29.1382 52.0855 29.1382C55.8692 29.1382 58.9474 32.2165 58.9474 36.0001C58.9474 39.7838 55.8692 42.8619 52.0855 42.8619Z" fill="#1C468A"/>
</g>
<defs>
<clipPath id="clip0_111_3509">
<rect width="72" height="72" fill="white"/>
</clipPath>
</defs>
</svg>
