<svg width="72" height="72" viewBox="0 0 72 72" fill="none" xmlns="http://www.w3.org/2000/svg">
<g clip-path="url(#clip0_105_3488)">
<path d="M36 72C55.8823 72 72 55.8823 72 36C72 16.1177 55.8823 0 36 0C16.1177 0 0 16.1177 0 36C0 55.8823 16.1177 72 36 72Z" fill="#FC8900"/>
<path d="M71.9334 38.1628L46.6567 12.8859C44.0069 10.0088 40.2106 8.20306 36 8.20306C28.0099 8.20306 21.5098 14.7035 21.5098 22.6933V31.6834H17.6996V51.9317C17.6996 54.3167 18.6896 56.4677 20.2791 58.0016L34.2528 71.9571C34.8318 71.9848 35.4141 72 36 72C55.1559 72 70.8146 57.0378 71.9334 38.1628Z" fill="#E67500"/>
<path d="M50.4902 34.4775H44.3668V22.6934C44.3668 18.0799 40.6132 14.3266 36 14.3266C31.3868 14.3266 27.6333 18.0799 27.6333 22.6934V34.4775H21.5099V22.6934C21.5099 14.7036 28.01 8.20325 36 8.20325C43.9901 8.20325 50.4902 14.7036 50.4902 22.6934V34.4775Z" fill="white"/>
<path d="M50.4915 22.6914V34.4762H44.369V22.6914C44.369 18.0787 40.6126 14.327 36 14.327V8.20447C43.9916 8.20447 50.4915 14.7046 50.4915 22.6914Z" fill="#FFEC97"/>
<path d="M54.3005 31.6833V51.9317C54.3005 56.5944 50.522 60.3693 45.8628 60.3693H26.1372C21.478 60.3693 17.6996 56.5944 17.6996 51.9317V31.6833H54.3005Z" fill="#96A0F0"/>
<path d="M54.3009 31.6828V51.9314C54.3009 56.5945 50.5223 60.3689 45.8634 60.3689H36V31.6828H54.3009Z" fill="#4A5BE5"/>
<path d="M40.5685 42.5569C40.5685 40.0339 38.5231 37.9885 36 37.9885C33.4769 37.9885 31.4316 40.0339 31.4316 42.5569C31.4316 44.2795 32.3858 45.778 33.7934 46.5563V50.6676C33.7934 51.7535 34.6819 52.642 35.7678 52.642H36.2323C37.3182 52.642 38.2067 51.7535 38.2067 50.6676V46.5563C39.6143 45.7778 40.5685 44.2793 40.5685 42.5569Z" fill="#3A4DE3"/>
<path d="M40.5689 42.5574C40.5689 44.28 39.6141 45.7777 38.2064 46.5567V50.6672C38.2064 51.7528 37.3177 52.6416 36.232 52.6416H36V37.9885C38.5228 37.9885 40.5689 40.0332 40.5689 42.5574Z" fill="#1C2EDE"/>
</g>
<defs>
<clipPath id="clip0_105_3488">
<rect width="72" height="72" fill="white"/>
</clipPath>
</defs>
</svg>
