<svg width="72" height="72" viewBox="0 0 72 72" fill="none" xmlns="http://www.w3.org/2000/svg">
<path d="M36 72C55.8823 72 72 55.8823 72 36C72 16.1177 55.8823 0 36 0C16.1177 0 0 16.1177 0 36C0 55.8823 16.1177 72 36 72Z" fill="#FC8900"/>
<path d="M72 36C72 32.8975 71.6075 29.8868 70.8695 27.0145L56.1288 12.2736L55.5487 16.3364L47.2098 7.9975L42.991 16.9196L56.2362 30.1649L53.9107 32.1123L34.072 12.2736L31.0889 15.2567L50.6637 34.8314L48.0119 34.7134L36.1281 22.6766L20.5439 60.0538L32.3025 71.8124C33.5181 71.9364 34.7517 72 36 72C55.8822 72 72 55.8823 72 36Z" fill="#E67500"/>
<path d="M46.6173 36.7042L58.1742 33.5284C59.7614 33.0921 60.6945 31.4519 60.2584 29.8648C59.8222 28.2776 58.1819 27.3445 56.5948 27.7807L33.7454 34.0598C33.7454 34.0598 35.8007 28.1781 36.6777 26.2984C37.3736 24.8068 36.974 23.0465 35.5389 22.2403C34.1038 21.4341 32.3692 21.9935 31.4807 23.379C29.1241 27.054 21.2126 37.5038 21.2126 37.5038L26.2295 56.2465L30.8035 57.499C32.7876 58.0424 34.8813 58.0414 36.865 57.4964L47.3626 54.6116L46.6173 36.7042Z" fill="#FFDECF"/>
<path d="M26.2292 56.2465L30.8032 57.499C32.7873 58.0424 34.881 58.0414 36.8647 57.4964L47.3623 54.6116L46.8605 42.5488L43.5881 43.5208L24.0905 48.256L26.2292 56.2465Z" fill="#FFCDBE"/>
<path d="M14.3021 37.3435L22.6825 35.0397L28.9212 57.7345L20.5408 60.0383L14.3021 37.3435Z" fill="white"/>
<path d="M17.7393 49.8479L20.5439 60.0538L28.9265 57.7502L26.1782 47.749L17.7393 49.8479Z" fill="#E9EDF5"/>
<path d="M49.1767 41.9954L49.4184 41.929C50.9656 41.5039 51.875 39.905 51.4499 38.358C51.0248 36.8109 49.4259 35.9013 47.8788 36.3265L42.2862 37.8634C40.739 38.2885 39.8296 39.8874 40.2547 41.4345C40.6582 42.9024 42.1181 43.7963 43.5881 43.5208L41.6421 44.0556C39.9776 44.513 38.9989 46.2333 39.4564 47.8979C39.8631 49.3777 41.2676 50.3154 42.7441 50.1839C41.4723 50.7472 40.7696 52.171 41.1494 53.5528C41.5676 55.0747 43.1403 55.9695 44.6622 55.5512L50.1636 54.0394C51.6854 53.6212 52.5801 52.0484 52.1619 50.5266C51.8059 49.2317 50.6141 48.3908 49.3291 48.4265L50.5866 48.081C52.2512 47.6235 53.2298 45.9032 52.7723 44.2387C52.3375 42.6559 50.7614 41.6935 49.1767 41.9954Z" fill="#FFCDBE"/>
<path d="M43.5881 43.5208L41.6421 44.0554C39.9776 44.5129 38.9989 46.2332 39.4564 47.8977C39.8631 49.3775 41.2676 50.3152 42.7441 50.1837C41.4723 50.7471 40.7696 52.1709 41.1494 53.5527C41.5676 55.0745 43.1403 55.9692 44.6622 55.5511L50.1636 54.0393C51.6854 53.621 52.5801 52.0483 52.162 50.5265C51.8061 49.2316 50.6143 48.3906 49.3293 48.4264L50.5867 48.0808C52.2513 47.6234 53.2299 45.9031 52.7725 44.2385C52.3375 42.6561 50.7614 41.6937 49.1767 41.9956L49.4184 41.9292L43.5881 43.5208Z" fill="#FFBEAA"/>
<path d="M42.991 7.9975H47.2098V16.9196H42.991V7.9975Z" fill="white"/>
<path d="M31.084 15.2592L34.0667 12.2765L40.3746 18.5844L37.392 21.5671L31.084 15.2592Z" fill="white"/>
<path d="M49.8127 18.5856L56.1206 12.2776L59.1033 15.2603L52.7953 21.5682L49.8127 18.5856Z" fill="white"/>
</svg>
